<?xml version="1.0" encoding="utf-8"?>
<!-- Generator: Adobe Illustrator 27.0.0, SVG Export Plug-In . SVG Version: 6.00 Build 0)  -->
<svg version="1.1" id="Слой_1" xmlns="http://www.w3.org/2000/svg" xmlns:xlink="http://www.w3.org/1999/xlink" x="0px" y="0px"
	 viewBox="0 0 51 51" style="enable-background:new 0 0 51 51;" xml:space="preserve">
<style type="text/css">
	.st0{fill:#9D9D9C;}
	.st1{fill:none;stroke:#3C3C3B;stroke-width:1.5;stroke-linecap:round;stroke-linejoin:round;stroke-miterlimit:10;}
	.st2{fill:none;stroke:#3C3C3B;stroke-width:0.5;stroke-linecap:round;stroke-linejoin:round;stroke-miterlimit:10;}
	.st3{fill:#706F6F;}
	.st4{fill:none;stroke:#3C3C3B;stroke-linecap:round;stroke-linejoin:round;stroke-miterlimit:10;}
	.st5{fill:none;stroke:#878787;stroke-width:0.5;stroke-linecap:round;stroke-linejoin:round;stroke-miterlimit:10;}
	.st6{fill:none;stroke:#3C3C3B;stroke-linecap:round;stroke-linejoin:round;}
	.st7{fill:#3C3C3B;}
	.st8{fill:#3C3C3B;stroke:#3C3C3B;stroke-width:0.5;stroke-linecap:round;stroke-linejoin:bevel;stroke-miterlimit:10;}
	.st9{fill:none;stroke:#9D9D9C;stroke-width:3;stroke-miterlimit:10;}
	.st10{fill:#FFFFFF;}
	.st11{fill:none;stroke:#3C3C3B;stroke-width:2;stroke-linecap:round;stroke-linejoin:round;stroke-miterlimit:10;}
	.st12{fill:none;stroke:#3C3C3B;stroke-width:2;stroke-linecap:round;stroke-linejoin:round;}
	.st13{fill:none;stroke:#3C3C3B;stroke-width:2;stroke-linecap:round;stroke-linejoin:round;stroke-dasharray:4.9849,4.9849;}
	.st14{fill:#3AAA35;}
	.st15{fill:#E30613;}
	.st16{fill:#FFFFFF;stroke:#FFFFFF;stroke-width:6;stroke-miterlimit:10;}
	.st17{fill:#009640;}
	.st18{fill:none;stroke:#3C3C3B;stroke-miterlimit:10;}
	.st19{fill:#575756;}
	.st20{fill:#4D4D4C;stroke:#FFFFFF;stroke-miterlimit:10;}
	.st21{fill:#FFFFFF;stroke:#000000;stroke-miterlimit:10;}
	.st22{fill:#858584;stroke:#000000;stroke-miterlimit:10;}
	.st23{fill:#616160;}
	.st24{fill:#F6F6F6;}
	.st25{fill:none;stroke:#F6F6F6;stroke-miterlimit:10;}
	.st26{fill:#C6C6C6;}
	.st27{fill:#BE1622;}
	.st28{fill:none;stroke:#FFFFFF;stroke-width:9;stroke-linecap:round;stroke-linejoin:round;stroke-miterlimit:10;}
	.st29{fill:#5A9152;}
	.st30{fill:#FFFFFF;stroke:#3C3C3B;stroke-linecap:round;stroke-linejoin:round;stroke-miterlimit:10;}
	.st31{fill:#5A9152;stroke:#3C3C3B;stroke-width:0.25;stroke-miterlimit:10;}
	.st32{fill:none;stroke:#3C3C3B;stroke-width:2.5965;stroke-linecap:round;stroke-linejoin:round;stroke-miterlimit:10;}
	.st33{fill:#5A9152;stroke:#3C3C3B;stroke-width:1.6667;stroke-miterlimit:10;}
	.st34{fill:#E5C676;}
	.st35{fill:none;stroke:#3C3C3B;stroke-width:5.6355;stroke-linecap:round;stroke-linejoin:round;stroke-miterlimit:10;}
	.st36{fill:none;stroke:#3C3C3B;stroke-width:2.8177;stroke-linecap:round;stroke-linejoin:round;stroke-miterlimit:10;}
	.st37{fill:#FFFFFF;stroke:#3C3C3B;stroke-width:2.8177;stroke-linecap:round;stroke-linejoin:round;stroke-miterlimit:10;}
	.st38{fill:#5A9152;stroke:#3C3C3B;stroke-width:0.7044;stroke-miterlimit:10;}
	.st39{fill:none;stroke:#3C3C3B;stroke-width:2.2043;stroke-linecap:round;stroke-linejoin:round;stroke-miterlimit:10;}
	.st40{fill:none;stroke:#3C3C3B;stroke-width:1.1021;stroke-linecap:round;stroke-linejoin:round;stroke-miterlimit:10;}
	.st41{fill:#FFFFFF;stroke:#3C3C3B;stroke-width:1.1021;stroke-linecap:round;stroke-linejoin:round;stroke-miterlimit:10;}
	.st42{fill:#5A9152;stroke:#3C3C3B;stroke-width:0.2755;stroke-miterlimit:10;}
	.st43{fill:#A08A7A;stroke:#3C3C3B;stroke-width:2;stroke-linecap:round;stroke-linejoin:round;stroke-miterlimit:10;}
	.st44{fill:#5A9152;stroke:#3C3C3B;stroke-width:0.75;stroke-miterlimit:10;}
	.st45{fill:#CEBF9F;}
	.st46{fill:#A59983;}
	.st47{fill:none;stroke:#7E7763;stroke-width:2;stroke-linecap:round;stroke-linejoin:round;stroke-miterlimit:10;}
	.st48{fill:none;stroke:#7E7763;stroke-width:0.75;stroke-linecap:round;stroke-linejoin:round;stroke-miterlimit:10;}
	.st49{fill:none;stroke:#3C3C3B;stroke-width:4.9345;stroke-linecap:round;stroke-linejoin:round;stroke-miterlimit:10;}
	.st50{fill:#A08A7A;stroke:#3C3C3B;stroke-width:4.9345;stroke-linecap:round;stroke-linejoin:round;stroke-miterlimit:10;}
	.st51{fill:#5A9152;stroke:#3C3C3B;stroke-width:1.8504;stroke-miterlimit:10;}
	.st52{fill:none;stroke:#3C3C3B;stroke-width:4.8719;stroke-linecap:round;stroke-linejoin:round;stroke-miterlimit:10;}
	.st53{fill:none;stroke:#7E7763;stroke-width:4.8719;stroke-linecap:round;stroke-linejoin:round;stroke-miterlimit:10;}
	.st54{fill:none;stroke:#7E7763;stroke-width:1.827;stroke-linecap:round;stroke-linejoin:round;stroke-miterlimit:10;}
	.st55{fill:none;stroke:#9D9D9C;stroke-width:4;stroke-linecap:round;stroke-linejoin:round;stroke-miterlimit:10;}
	.st56{fill:#3AABE1;}
	.st57{fill:#EC7015;}
	.st58{fill:#FEFEFF;}
	.st59{fill:none;stroke:#9D9D9C;stroke-width:1.2225;stroke-linecap:round;stroke-linejoin:round;stroke-miterlimit:10;}
	.st60{fill:none;stroke:#9D9D9C;stroke-width:1.2228;stroke-linecap:round;stroke-linejoin:round;stroke-miterlimit:10;}
	.st61{fill:none;stroke:#9D9D9C;stroke-width:1.2417;stroke-linecap:round;stroke-linejoin:round;stroke-miterlimit:10;}
	.st62{fill:none;stroke:#9D9D9C;stroke-width:1.1747;stroke-linecap:round;stroke-linejoin:round;stroke-miterlimit:10;}
	.st63{fill:none;stroke:#9D9D9C;stroke-width:1.1437;stroke-linecap:round;stroke-linejoin:round;stroke-miterlimit:10;}
	.st64{fill:none;stroke:#3C3C3B;stroke-width:0.6208;stroke-linecap:round;stroke-linejoin:round;stroke-miterlimit:10;}
	.st65{fill:#009FE3;stroke:#3C3C3B;stroke-width:2;stroke-miterlimit:10;}
	.st66{fill:none;stroke:#3C3C3B;stroke-width:0.6612;stroke-linecap:round;stroke-linejoin:round;stroke-miterlimit:10;}
	.st67{fill:none;stroke:#3C3C3B;stroke-width:0.4849;stroke-linecap:round;stroke-linejoin:round;stroke-miterlimit:10;}
	.st68{fill:none;stroke:#9D9D9C;stroke-width:0.9698;stroke-linecap:round;stroke-linejoin:round;stroke-miterlimit:10;}
	.st69{fill:none;stroke:#C93226;stroke-width:0.4849;stroke-linecap:round;stroke-linejoin:round;}
	.st70{fill:none;stroke:#C93226;stroke-width:0.4849;stroke-linecap:round;stroke-linejoin:round;stroke-dasharray:1.2085,1.2085;}
	.st71{fill:none;stroke:#3C3C3B;stroke-width:1.7521;stroke-miterlimit:10;}
	.st72{fill:none;stroke:#3C3C3B;stroke-width:0.5793;stroke-linecap:round;stroke-linejoin:round;stroke-miterlimit:10;}
	.st73{fill:none;stroke:#009FE3;stroke-linecap:round;stroke-miterlimit:10;}
	.st74{fill:none;stroke:#3C3C3B;stroke-width:2;stroke-miterlimit:10;}
	.st75{fill:none;stroke:#C93226;stroke-linecap:round;stroke-miterlimit:10;stroke-dasharray:3,3;}
	.st76{fill:none;stroke:#3C3C3B;stroke-width:3;stroke-linecap:round;stroke-linejoin:round;stroke-miterlimit:10;}
	.st77{fill:#FFFFFF;stroke:#3C3C3B;stroke-width:3;stroke-linecap:round;stroke-linejoin:round;stroke-miterlimit:10;}
	.st78{fill:#5A9152;stroke:#3C3C3B;stroke-width:0.9125;stroke-miterlimit:10;}
	.st79{fill:none;stroke:#000000;stroke-miterlimit:10;}
	.st80{fill:none;stroke:#000000;stroke-width:2;stroke-linecap:round;stroke-miterlimit:10;}
	.st81{fill:none;stroke:#575756;stroke-width:0.75;stroke-miterlimit:10;}
	.st82{fill:none;stroke:#238CB9;stroke-width:2;stroke-linecap:round;stroke-miterlimit:10;}
	.st83{fill:none;stroke:#FFFFFF;stroke-width:16.38;stroke-linecap:round;stroke-linejoin:round;stroke-miterlimit:10;}
	.st84{fill:none;stroke:#000000;stroke-width:0.5;stroke-linecap:round;stroke-miterlimit:10;}
	.st85{fill:#A08A7A;stroke:#3C3C3B;stroke-width:6;stroke-linecap:round;stroke-linejoin:round;stroke-miterlimit:10;}
	.st86{fill:#5A9152;stroke:#3C3C3B;stroke-width:5;stroke-miterlimit:10;}
	.st87{fill:none;stroke:#7E7763;stroke-width:3;stroke-linecap:round;stroke-linejoin:round;stroke-miterlimit:10;}
	.st88{fill:none;stroke:#575756;stroke-width:0.5;stroke-linecap:round;stroke-miterlimit:10;}
	.st89{fill:none;stroke:#238CB9;stroke-width:2;stroke-miterlimit:10;}
</style>
<g>
	<path class="st81" d="M45.74,50.5l-40.49,0c-2.63,0-4.76-2.13-4.76-4.76l0-40.49c0-2.63,2.13-4.76,4.76-4.76l40.49,0
		c2.63,0,4.76,2.13,4.76,4.76l0,40.49C50.5,48.37,48.37,50.5,45.74,50.5z"/>
	<g>
		<path class="st18" d="M31.9,25.53c0,0.37,0.03,0.75-0.01,1.11c-0.05,0.57-0.14,1.13-0.21,1.7c-0.04,0.33-0.08,0.67-0.14,1
			c-0.06,0.35-0.14,0.69-0.23,1.03c-0.15,0.55-0.3,1.1-0.49,1.63c-0.25,0.67-0.53,1.32-0.82,1.97c-0.35,0.8-0.79,1.55-1.27,2.28
			c-0.34,0.51-0.69,1-1.04,1.5c-0.22,0.31-0.91,0.57-1.23,0.44c-0.44-0.17-0.85-0.46-0.9-1.07c-0.03-0.43,0.15-0.75,0.39-1.06
			c0.54-0.69,1.04-1.41,1.44-2.19c0.2-0.38,0.42-0.76,0.58-1.15c0.26-0.61,0.5-1.23,0.71-1.86c0.2-0.59,0.36-1.18,0.5-1.78
			c0.08-0.31,0.09-0.64,0.14-0.96c0.04-0.24,0.1-0.48,0.12-0.72c0.03-0.26,0.03-0.52,0.04-0.77c0.02-0.55,0.07-1.11,0.05-1.66
			c-0.02-0.57-0.08-1.13-0.15-1.7c-0.05-0.41-0.11-0.82-0.2-1.23c-0.09-0.43-0.2-0.87-0.34-1.29c-0.23-0.69-0.46-1.39-0.74-2.06
			c-0.35-0.86-0.78-1.68-1.3-2.45c-0.35-0.51-0.73-1-1.08-1.51c-0.52-0.76-0.19-1.63,0.64-1.89c0.45-0.14,0.88,0.02,1.2,0.39
			c0.73,0.87,1.35,1.81,1.89,2.8c0.35,0.63,0.65,1.3,0.93,1.97c0.27,0.67,0.51,1.36,0.72,2.05c0.15,0.48,0.27,0.97,0.36,1.47
			c0.11,0.61,0.2,1.22,0.28,1.84c0.08,0.73,0.14,1.46,0.21,2.18C31.94,25.53,31.92,25.53,31.9,25.53z"/>
		<path class="st18" d="M27.58,25.55c-0.04,0.57-0.05,1.15-0.11,1.72c-0.05,0.47-0.15,0.94-0.25,1.41c-0.11,0.5-0.23,1.01-0.38,1.5
			c-0.32,1.03-0.75,2.02-1.3,2.96c-0.28,0.49-0.6,0.96-0.92,1.42c-0.26,0.38-0.64,0.56-1.09,0.53c-0.49-0.03-0.81-0.32-1.01-0.75
			c-0.22-0.47-0.04-0.89,0.24-1.26c0.53-0.72,0.98-1.49,1.31-2.32c0.21-0.54,0.45-1.08,0.61-1.63c0.18-0.64,0.3-1.3,0.39-1.95
			c0.09-0.63,0.12-1.26,0.14-1.9c0.01-0.4-0.01-0.8-0.07-1.19c-0.1-0.63-0.2-1.27-0.36-1.88c-0.16-0.61-0.38-1.22-0.63-1.8
			c-0.38-0.88-0.82-1.73-1.42-2.49c-0.24-0.31-0.36-0.68-0.3-1.09c0.05-0.35,0.43-0.74,0.79-0.89c0.5-0.2,1.13,0.09,1.41,0.54
			c0.42,0.67,0.87,1.34,1.25,2.03c0.34,0.62,0.63,1.27,0.83,1.96c0.13,0.43,0.29,0.85,0.41,1.29c0.1,0.36,0.17,0.73,0.22,1.1
			c0.09,0.58,0.16,1.15,0.22,1.73c0.03,0.32,0.01,0.64,0.01,0.96C27.56,25.55,27.57,25.55,27.58,25.55z"/>
		<path class="st18" d="M21.27,31.23c0.23-0.35,0.42-0.72,0.59-1.1c0.21-0.48,0.4-0.98,0.56-1.48c0.14-0.41,0.27-0.83,0.34-1.26
			c0.1-0.61,0.13-1.23,0.18-1.85c-0.06-0.64-0.08-1.27-0.19-1.88c-0.1-0.57-0.27-1.13-0.45-1.68c-0.26-0.79-0.64-1.52-1.09-2.22
			c-0.21-0.33-0.53-0.49-0.91-0.53c-0.52-0.05-0.89,0.21-1.12,0.64c-0.24,0.43-0.15,0.88,0.1,1.3c0.2,0.35,0.43,0.69,0.57,1.06
			c0.22,0.59,0.41,1.2,0.56,1.81c0.1,0.41,0.12,0.85,0.12,1.28c0,0.62-0.03,1.23-0.16,1.85c-0.18,0.92-0.52,1.76-0.98,2.56
			c-0.27,0.48-0.47,0.95-0.11,1.49C19.76,31.94,20.79,31.96,21.27,31.23z"/>
	</g>
	<g>
		<line class="st88" x1="39.59" y1="6.51" x2="43.75" y2="10.68"/>
		<line class="st88" x1="39.59" y1="10.02" x2="43.75" y2="14.19"/>
		<line class="st88" x1="39.59" y1="13.53" x2="43.75" y2="17.69"/>
		<line class="st88" x1="39.59" y1="17.03" x2="43.75" y2="21.2"/>
		<line class="st88" x1="39.59" y1="20.54" x2="43.75" y2="24.7"/>
		<line class="st88" x1="39.59" y1="24.05" x2="43.75" y2="28.21"/>
		<line class="st88" x1="39.59" y1="27.55" x2="43.75" y2="31.72"/>
		<line class="st88" x1="39.59" y1="31.06" x2="43.75" y2="35.22"/>
		<line class="st88" x1="39.59" y1="34.57" x2="43.75" y2="38.73"/>
		<line class="st88" x1="39.59" y1="38.07" x2="43.75" y2="42.24"/>
		<line class="st88" x1="39.59" y1="4.79" x2="39.59" y2="46.21"/>
		<polyline class="st88" points="39.59,47.02 43.75,47.02 43.75,4.79 39.59,4.79 		"/>
		<line class="st88" x1="39.59" y1="41.58" x2="43.75" y2="45.74"/>
	</g>
	<g>
		<line class="st88" x1="39.59" y1="6.51" x2="43.75" y2="10.68"/>
		<line class="st88" x1="39.59" y1="10.02" x2="43.75" y2="14.19"/>
		<line class="st88" x1="39.59" y1="13.53" x2="43.75" y2="17.69"/>
		<line class="st88" x1="39.59" y1="17.03" x2="43.75" y2="21.2"/>
		<line class="st88" x1="39.59" y1="20.54" x2="43.75" y2="24.7"/>
		<line class="st88" x1="39.59" y1="24.05" x2="43.75" y2="28.21"/>
		<line class="st88" x1="39.59" y1="27.55" x2="43.75" y2="31.72"/>
		<line class="st88" x1="39.59" y1="31.06" x2="43.75" y2="35.22"/>
		<line class="st88" x1="39.59" y1="34.57" x2="43.75" y2="38.73"/>
		<line class="st88" x1="39.59" y1="38.07" x2="43.75" y2="42.24"/>
		<line class="st88" x1="39.59" y1="41.58" x2="43.75" y2="45.74"/>
	</g>
	<line class="st89" x1="39.59" y1="47.27" x2="39.59" y2="4.54"/>
</g>
</svg>
