<?xml version="1.0" encoding="utf-8"?>
<!-- Generator: Adobe Illustrator 27.0.0, SVG Export Plug-In . SVG Version: 6.00 Build 0)  -->
<svg version="1.1" id="Слой_1" xmlns="http://www.w3.org/2000/svg" xmlns:xlink="http://www.w3.org/1999/xlink" x="0px" y="0px"
	 viewBox="0 0 51 51" style="enable-background:new 0 0 51 51;" xml:space="preserve">
<style type="text/css">
	.st0{fill:#9D9D9C;}
	.st1{fill:none;stroke:#3C3C3B;stroke-width:1.5;stroke-linecap:round;stroke-linejoin:round;stroke-miterlimit:10;}
	.st2{fill:none;stroke:#3C3C3B;stroke-width:0.5;stroke-linecap:round;stroke-linejoin:round;stroke-miterlimit:10;}
	.st3{fill:#706F6F;}
	.st4{fill:none;stroke:#3C3C3B;stroke-linecap:round;stroke-linejoin:round;stroke-miterlimit:10;}
	.st5{fill:none;stroke:#878787;stroke-width:0.5;stroke-linecap:round;stroke-linejoin:round;stroke-miterlimit:10;}
	.st6{fill:none;stroke:#3C3C3B;stroke-linecap:round;stroke-linejoin:round;}
	.st7{fill:#3C3C3B;}
	.st8{fill:#3C3C3B;stroke:#3C3C3B;stroke-width:0.5;stroke-linecap:round;stroke-linejoin:bevel;stroke-miterlimit:10;}
	.st9{fill:none;stroke:#9D9D9C;stroke-width:3;stroke-miterlimit:10;}
	.st10{fill:#FFFFFF;}
	.st11{fill:none;stroke:#3C3C3B;stroke-width:2;stroke-linecap:round;stroke-linejoin:round;stroke-miterlimit:10;}
	.st12{fill:none;stroke:#3C3C3B;stroke-width:2;stroke-linecap:round;stroke-linejoin:round;}
	.st13{fill:none;stroke:#3C3C3B;stroke-width:2;stroke-linecap:round;stroke-linejoin:round;stroke-dasharray:4.9849,4.9849;}
	.st14{fill:#3AAA35;}
	.st15{fill:#E30613;}
	.st16{fill:#FFFFFF;stroke:#FFFFFF;stroke-width:6;stroke-miterlimit:10;}
	.st17{fill:#009640;}
	.st18{fill:none;stroke:#3C3C3B;stroke-miterlimit:10;}
	.st19{fill:#575756;}
	.st20{fill:#4D4D4C;stroke:#FFFFFF;stroke-miterlimit:10;}
	.st21{fill:#FFFFFF;stroke:#000000;stroke-miterlimit:10;}
	.st22{fill:#858584;stroke:#000000;stroke-miterlimit:10;}
	.st23{fill:#616160;}
	.st24{fill:#F6F6F6;}
	.st25{fill:none;stroke:#F6F6F6;stroke-miterlimit:10;}
	.st26{fill:#C6C6C6;}
	.st27{fill:#BE1622;}
	.st28{fill:none;stroke:#FFFFFF;stroke-width:9;stroke-linecap:round;stroke-linejoin:round;stroke-miterlimit:10;}
	.st29{fill:#5A9152;}
	.st30{fill:#FFFFFF;stroke:#3C3C3B;stroke-linecap:round;stroke-linejoin:round;stroke-miterlimit:10;}
	.st31{fill:#5A9152;stroke:#3C3C3B;stroke-width:0.25;stroke-miterlimit:10;}
	.st32{fill:none;stroke:#3C3C3B;stroke-width:2.5965;stroke-linecap:round;stroke-linejoin:round;stroke-miterlimit:10;}
	.st33{fill:#5A9152;stroke:#3C3C3B;stroke-width:1.6667;stroke-miterlimit:10;}
	.st34{fill:#E5C676;}
	.st35{fill:none;stroke:#3C3C3B;stroke-width:2.2043;stroke-linecap:round;stroke-linejoin:round;stroke-miterlimit:10;}
	.st36{fill:none;stroke:#3C3C3B;stroke-width:1.1021;stroke-linecap:round;stroke-linejoin:round;stroke-miterlimit:10;}
	.st37{fill:#FFFFFF;stroke:#3C3C3B;stroke-width:1.1021;stroke-linecap:round;stroke-linejoin:round;stroke-miterlimit:10;}
	.st38{fill:#5A9152;stroke:#3C3C3B;stroke-width:0.2755;stroke-miterlimit:10;}
	.st39{fill:#A08A7A;stroke:#3C3C3B;stroke-width:2;stroke-linecap:round;stroke-linejoin:round;stroke-miterlimit:10;}
	.st40{fill:#5A9152;stroke:#3C3C3B;stroke-width:0.75;stroke-miterlimit:10;}
	.st41{fill:#CEBF9F;}
	.st42{fill:#A59983;}
	.st43{fill:none;stroke:#7E7763;stroke-width:2;stroke-linecap:round;stroke-linejoin:round;stroke-miterlimit:10;}
	.st44{fill:none;stroke:#7E7763;stroke-width:0.75;stroke-linecap:round;stroke-linejoin:round;stroke-miterlimit:10;}
	.st45{fill:none;stroke:#3C3C3B;stroke-width:4.9345;stroke-linecap:round;stroke-linejoin:round;stroke-miterlimit:10;}
	.st46{fill:#A08A7A;stroke:#3C3C3B;stroke-width:4.9345;stroke-linecap:round;stroke-linejoin:round;stroke-miterlimit:10;}
	.st47{fill:#5A9152;stroke:#3C3C3B;stroke-width:1.8504;stroke-miterlimit:10;}
	.st48{fill:none;stroke:#3C3C3B;stroke-width:4.8719;stroke-linecap:round;stroke-linejoin:round;stroke-miterlimit:10;}
	.st49{fill:none;stroke:#7E7763;stroke-width:4.8719;stroke-linecap:round;stroke-linejoin:round;stroke-miterlimit:10;}
	.st50{fill:none;stroke:#7E7763;stroke-width:1.827;stroke-linecap:round;stroke-linejoin:round;stroke-miterlimit:10;}
	.st51{fill:none;stroke:#9D9D9C;stroke-width:4;stroke-linecap:round;stroke-linejoin:round;stroke-miterlimit:10;}
	.st52{fill:#3AABE1;}
	.st53{fill:#EC7015;}
	.st54{fill:#FEFEFF;}
	.st55{fill:none;stroke:#9D9D9C;stroke-width:1.2225;stroke-linecap:round;stroke-linejoin:round;stroke-miterlimit:10;}
	.st56{fill:none;stroke:#9D9D9C;stroke-width:1.2228;stroke-linecap:round;stroke-linejoin:round;stroke-miterlimit:10;}
	.st57{fill:none;stroke:#9D9D9C;stroke-width:1.2417;stroke-linecap:round;stroke-linejoin:round;stroke-miterlimit:10;}
	.st58{fill:none;stroke:#9D9D9C;stroke-width:1.1747;stroke-linecap:round;stroke-linejoin:round;stroke-miterlimit:10;}
	.st59{fill:none;stroke:#9D9D9C;stroke-width:1.1437;stroke-linecap:round;stroke-linejoin:round;stroke-miterlimit:10;}
	.st60{fill:none;stroke:#3C3C3B;stroke-width:0.6208;stroke-linecap:round;stroke-linejoin:round;stroke-miterlimit:10;}
	.st61{fill:#009FE3;stroke:#3C3C3B;stroke-width:2;stroke-miterlimit:10;}
	.st62{fill:none;stroke:#3C3C3B;stroke-width:0.6612;stroke-linecap:round;stroke-linejoin:round;stroke-miterlimit:10;}
	.st63{fill:none;stroke:#3C3C3B;stroke-width:0.4849;stroke-linecap:round;stroke-linejoin:round;stroke-miterlimit:10;}
	.st64{fill:none;stroke:#9D9D9C;stroke-width:0.9698;stroke-linecap:round;stroke-linejoin:round;stroke-miterlimit:10;}
	.st65{fill:none;stroke:#C93226;stroke-width:0.4849;stroke-linecap:round;stroke-linejoin:round;}
	.st66{fill:none;stroke:#C93226;stroke-width:0.4849;stroke-linecap:round;stroke-linejoin:round;stroke-dasharray:1.2085,1.2085;}
	.st67{fill:none;stroke:#3C3C3B;stroke-width:1.7521;stroke-miterlimit:10;}
	.st68{fill:none;stroke:#3C3C3B;stroke-width:0.5793;stroke-linecap:round;stroke-linejoin:round;stroke-miterlimit:10;}
	.st69{fill:none;stroke:#009FE3;stroke-linecap:round;stroke-miterlimit:10;}
	.st70{fill:none;stroke:#3C3C3B;stroke-width:2;stroke-miterlimit:10;}
	.st71{fill:none;stroke:#C93226;stroke-linecap:round;stroke-miterlimit:10;stroke-dasharray:3,3;}
	.st72{fill:none;stroke:#3C3C3B;stroke-width:3;stroke-linecap:round;stroke-linejoin:round;stroke-miterlimit:10;}
	.st73{fill:#FFFFFF;stroke:#3C3C3B;stroke-width:3;stroke-linecap:round;stroke-linejoin:round;stroke-miterlimit:10;}
	.st74{fill:#5A9152;stroke:#3C3C3B;stroke-width:0.9125;stroke-miterlimit:10;}
	.st75{fill:none;stroke:#000000;stroke-miterlimit:10;}
	.st76{fill:none;stroke:#000000;stroke-width:2;stroke-linecap:round;stroke-miterlimit:10;}
	.st77{fill:none;stroke:#FFFFFF;stroke-miterlimit:10;}
	.st78{fill:none;stroke:#FFFFFF;stroke-width:0.75;stroke-miterlimit:10;}
	.st79{fill:none;stroke:#FFFFFF;stroke-width:16.38;stroke-linecap:round;stroke-linejoin:round;stroke-miterlimit:10;}
	.st80{fill:none;stroke:#000000;stroke-width:0.5;stroke-linecap:round;stroke-miterlimit:10;}
	.st81{fill:none;stroke:#FFFFFF;stroke-width:0.5;stroke-linecap:round;stroke-miterlimit:10;}
	.st82{fill:none;stroke:#575756;stroke-width:0.75;stroke-miterlimit:10;}
	.st83{fill:none;stroke:#238CB9;stroke-width:2;stroke-linecap:round;stroke-miterlimit:10;}
	.st84{fill:none;stroke:#575756;stroke-width:0.5;stroke-linecap:round;stroke-miterlimit:10;}
	.st85{fill:none;stroke:#238CB9;stroke-width:2;stroke-miterlimit:10;}
	.st86{fill:#A08A7A;stroke:#3C3C3B;stroke-width:15.2739;stroke-linecap:round;stroke-linejoin:round;stroke-miterlimit:10;}
	.st87{fill:#5A9152;stroke:#3C3C3B;stroke-width:1.9092;stroke-miterlimit:10;}
	.st88{fill:#5A9152;stroke:#3C3C3B;stroke-width:12.7283;stroke-miterlimit:10;}
	.st89{fill:none;stroke:#7E7763;stroke-width:7.4185;stroke-linecap:round;stroke-linejoin:round;stroke-miterlimit:10;}
	.st90{fill:none;stroke:#7E7763;stroke-width:1.8546;stroke-linecap:round;stroke-linejoin:round;stroke-miterlimit:10;}
</style>
<!-- <path class="st78" d="M50.5,5.26l0,40.49c0,2.63-2.13,4.76-4.76,4.76l-40.49,0c-2.63,0-4.76-2.13-4.76-4.76l0-40.49
	c0-2.63,2.13-4.76,4.76-4.76l40.49,0C48.37,0.5,50.5,2.63,50.5,5.26z"/> -->
<path class="st77" d="M25.53,19.1c0.37,0,0.75-0.03,1.11,0.01c0.57,0.05,1.13,0.14,1.7,0.21c0.33,0.04,0.67,0.08,1,0.14
	c0.35,0.06,0.69,0.14,1.03,0.23c0.55,0.15,1.1,0.3,1.63,0.49c0.67,0.25,1.32,0.53,1.97,0.82c0.8,0.35,1.55,0.79,2.28,1.27
	c0.51,0.34,1,0.69,1.5,1.04c0.31,0.22,0.57,0.91,0.44,1.23c-0.17,0.44-0.46,0.85-1.07,0.9c-0.43,0.03-0.75-0.15-1.06-0.39
	c-0.69-0.54-1.41-1.04-2.19-1.44c-0.38-0.2-0.76-0.42-1.15-0.58c-0.61-0.26-1.23-0.5-1.86-0.71c-0.59-0.2-1.18-0.36-1.78-0.5
	c-0.31-0.08-0.64-0.09-0.96-0.14c-0.24-0.04-0.48-0.1-0.72-0.12c-0.26-0.03-0.52-0.03-0.77-0.04c-0.55-0.02-1.11-0.07-1.66-0.05
	c-0.57,0.02-1.13,0.08-1.7,0.15c-0.41,0.05-0.82,0.11-1.23,0.2c-0.43,0.09-0.87,0.2-1.29,0.34c-0.69,0.23-1.39,0.46-2.06,0.74
	c-0.86,0.35-1.68,0.78-2.45,1.3c-0.51,0.35-1,0.73-1.51,1.08c-0.76,0.52-1.63,0.19-1.89-0.64c-0.14-0.45,0.02-0.88,0.39-1.2
	c0.87-0.73,1.81-1.35,2.8-1.89c0.63-0.35,1.3-0.65,1.97-0.93c0.67-0.27,1.36-0.51,2.05-0.72c0.48-0.15,0.97-0.27,1.47-0.36
	c0.61-0.11,1.22-0.2,1.84-0.28c0.73-0.08,1.46-0.14,2.18-0.21C25.53,19.06,25.53,19.08,25.53,19.1z"/>
<path class="st77" d="M25.55,23.42c0.57,0.04,1.15,0.05,1.72,0.11c0.47,0.05,0.94,0.15,1.41,0.25c0.5,0.11,1.01,0.23,1.5,0.38
	c1.03,0.32,2.02,0.75,2.96,1.3c0.49,0.28,0.96,0.6,1.42,0.92c0.38,0.26,0.56,0.64,0.53,1.09c-0.03,0.49-0.32,0.81-0.75,1.01
	c-0.47,0.22-0.89,0.04-1.26-0.24c-0.72-0.53-1.49-0.98-2.32-1.31c-0.54-0.21-1.08-0.45-1.63-0.61c-0.64-0.18-1.3-0.3-1.95-0.39
	c-0.63-0.09-1.26-0.12-1.9-0.14c-0.4-0.01-0.8,0.01-1.19,0.07c-0.63,0.1-1.27,0.2-1.88,0.36c-0.61,0.16-1.22,0.38-1.8,0.63
	c-0.88,0.38-1.73,0.82-2.49,1.42c-0.31,0.24-0.68,0.36-1.09,0.3c-0.35-0.05-0.74-0.43-0.89-0.79c-0.2-0.5,0.09-1.13,0.54-1.41
	c0.67-0.42,1.34-0.87,2.03-1.25c0.62-0.34,1.27-0.63,1.96-0.83c0.43-0.13,0.85-0.29,1.29-0.41c0.36-0.1,0.73-0.17,1.1-0.22
	c0.58-0.09,1.15-0.16,1.73-0.22c0.32-0.03,0.64-0.01,0.96-0.01C25.55,23.44,25.55,23.43,25.55,23.42z"/>
<path class="st77" d="M31.23,29.73c-0.35-0.23-0.72-0.42-1.1-0.59c-0.48-0.21-0.98-0.4-1.48-0.56c-0.41-0.14-0.83-0.27-1.26-0.34
	c-0.61-0.1-1.23-0.13-1.85-0.18c-0.64,0.06-1.27,0.08-1.88,0.19c-0.57,0.1-1.13,0.27-1.68,0.45c-0.79,0.26-1.52,0.64-2.22,1.09
	c-0.33,0.21-0.49,0.53-0.53,0.91c-0.05,0.52,0.21,0.89,0.64,1.12c0.43,0.24,0.88,0.15,1.3-0.1c0.35-0.2,0.69-0.43,1.06-0.57
	c0.59-0.22,1.2-0.41,1.81-0.56c0.41-0.1,0.85-0.12,1.28-0.12c0.62,0,1.23,0.03,1.85,0.16c0.92,0.18,1.76,0.52,2.56,0.98
	c0.48,0.27,0.95,0.47,1.49,0.11C31.94,31.24,31.96,30.21,31.23,29.73z"/>
<!-- <line class="st81" x1="6.51" y1="11.41" x2="10.68" y2="7.25"/>
<line class="st81" x1="10.02" y1="11.41" x2="14.19" y2="7.25"/>
<line class="st81" x1="13.53" y1="11.41" x2="17.69" y2="7.25"/>
<line class="st81" x1="17.03" y1="11.41" x2="21.2" y2="7.25"/>
<line class="st81" x1="20.54" y1="11.41" x2="24.7" y2="7.25"/>
<line class="st81" x1="24.05" y1="11.41" x2="28.21" y2="7.25"/>
<line class="st81" x1="27.55" y1="11.41" x2="31.72" y2="7.25"/>
<line class="st81" x1="31.06" y1="11.41" x2="35.22" y2="7.25"/>
<line class="st81" x1="34.57" y1="11.41" x2="38.73" y2="7.25"/>
<line class="st81" x1="38.07" y1="11.41" x2="42.24" y2="7.25"/>
<line class="st81" x1="4.79" y1="11.41" x2="46.21" y2="11.41"/>
<polyline class="st81" points="47.02,11.41 47.02,7.25 4.79,7.25 4.79,11.41 "/>
<line class="st81" x1="41.58" y1="11.41" x2="45.74" y2="7.25"/>
<line class="st81" x1="6.51" y1="11.41" x2="10.68" y2="7.25"/>
<line class="st81" x1="10.02" y1="11.41" x2="14.19" y2="7.25"/>
<line class="st81" x1="13.53" y1="11.41" x2="17.69" y2="7.25"/>
<line class="st81" x1="17.03" y1="11.41" x2="21.2" y2="7.25"/>
<line class="st81" x1="20.54" y1="11.41" x2="24.7" y2="7.25"/>
<line class="st81" x1="24.05" y1="11.41" x2="28.21" y2="7.25"/>
<line class="st81" x1="27.55" y1="11.41" x2="31.72" y2="7.25"/>
<line class="st81" x1="31.06" y1="11.41" x2="35.22" y2="7.25"/>
<line class="st81" x1="34.57" y1="11.41" x2="38.73" y2="7.25"/>
<line class="st81" x1="38.07" y1="11.41" x2="42.24" y2="7.25"/>
<line class="st81" x1="41.58" y1="11.41" x2="45.74" y2="7.25"/> -->
<g>
	<line class="st85" x1="47.27" y1="11.41" x2="4.54" y2="11.41"/>
</g>
</svg>
