<?xml version="1.0" encoding="utf-8"?>
<!-- Generator: Adobe Illustrator 27.0.0, SVG Export Plug-In . SVG Version: 6.00 Build 0)  -->
<svg version="1.1" id="Слой_1" xmlns="http://www.w3.org/2000/svg" xmlns:xlink="http://www.w3.org/1999/xlink" x="0px" y="0px"
	 viewBox="0 0 51 51" style="enable-background:new 0 0 51 51;" xml:space="preserve">
<style type="text/css">
	.st0{fill:#9D9D9C;}
	.st1{fill:none;stroke:#3C3C3B;stroke-width:1.5;stroke-linecap:round;stroke-linejoin:round;stroke-miterlimit:10;}
	.st2{fill:none;stroke:#3C3C3B;stroke-width:0.5;stroke-linecap:round;stroke-linejoin:round;stroke-miterlimit:10;}
	.st3{fill:#706F6F;}
	.st4{fill:none;stroke:#3C3C3B;stroke-linecap:round;stroke-linejoin:round;stroke-miterlimit:10;}
	.st5{fill:none;stroke:#878787;stroke-width:0.5;stroke-linecap:round;stroke-linejoin:round;stroke-miterlimit:10;}
	.st6{fill:none;stroke:#3C3C3B;stroke-linecap:round;stroke-linejoin:round;}
	.st7{fill:#3C3C3B;}
	.st8{fill:#3C3C3B;stroke:#3C3C3B;stroke-width:0.5;stroke-linecap:round;stroke-linejoin:bevel;stroke-miterlimit:10;}
	.st9{fill:none;stroke:#9D9D9C;stroke-width:3;stroke-miterlimit:10;}
	.st10{fill:#FFFFFF;}
	.st11{fill:none;stroke:#3C3C3B;stroke-width:2;stroke-linecap:round;stroke-linejoin:round;stroke-miterlimit:10;}
	.st12{fill:none;stroke:#3C3C3B;stroke-width:2;stroke-linecap:round;stroke-linejoin:round;}
	.st13{fill:none;stroke:#3C3C3B;stroke-width:2;stroke-linecap:round;stroke-linejoin:round;stroke-dasharray:4.9849,4.9849;}
	.st14{fill:#3AAA35;}
	.st15{fill:#E30613;}
	.st16{fill:#FFFFFF;stroke:#FFFFFF;stroke-width:6;stroke-miterlimit:10;}
	.st17{fill:#009640;}
	.st18{fill:none;stroke:#3C3C3B;stroke-miterlimit:10;}
	.st19{fill:#575756;}
	.st20{fill:#4D4D4C;stroke:#FFFFFF;stroke-miterlimit:10;}
	.st21{fill:#FFFFFF;stroke:#000000;stroke-miterlimit:10;}
	.st22{fill:#858584;stroke:#000000;stroke-miterlimit:10;}
	.st23{fill:#616160;}
	.st24{fill:#F6F6F6;}
	.st25{fill:none;stroke:#F6F6F6;stroke-miterlimit:10;}
	.st26{fill:#C6C6C6;}
	.st27{fill:#BE1622;}
	.st28{fill:none;stroke:#FFFFFF;stroke-width:9;stroke-linecap:round;stroke-linejoin:round;stroke-miterlimit:10;}
	.st29{fill:#5A9152;}
	.st30{fill:#FFFFFF;stroke:#3C3C3B;stroke-linecap:round;stroke-linejoin:round;stroke-miterlimit:10;}
	.st31{fill:#5A9152;stroke:#3C3C3B;stroke-width:0.25;stroke-miterlimit:10;}
	.st32{fill:none;stroke:#3C3C3B;stroke-width:2.5965;stroke-linecap:round;stroke-linejoin:round;stroke-miterlimit:10;}
	.st33{fill:#5A9152;stroke:#3C3C3B;stroke-width:1.6667;stroke-miterlimit:10;}
	.st34{fill:#E5C676;}
	.st35{fill:none;stroke:#3C3C3B;stroke-width:5.6355;stroke-linecap:round;stroke-linejoin:round;stroke-miterlimit:10;}
	.st36{fill:none;stroke:#3C3C3B;stroke-width:2.8177;stroke-linecap:round;stroke-linejoin:round;stroke-miterlimit:10;}
	.st37{fill:#FFFFFF;stroke:#3C3C3B;stroke-width:2.8177;stroke-linecap:round;stroke-linejoin:round;stroke-miterlimit:10;}
	.st38{fill:#5A9152;stroke:#3C3C3B;stroke-width:0.7044;stroke-miterlimit:10;}
	.st39{fill:none;stroke:#3C3C3B;stroke-width:2.2043;stroke-linecap:round;stroke-linejoin:round;stroke-miterlimit:10;}
	.st40{fill:none;stroke:#3C3C3B;stroke-width:1.1021;stroke-linecap:round;stroke-linejoin:round;stroke-miterlimit:10;}
	.st41{fill:#FFFFFF;stroke:#3C3C3B;stroke-width:1.1021;stroke-linecap:round;stroke-linejoin:round;stroke-miterlimit:10;}
	.st42{fill:#5A9152;stroke:#3C3C3B;stroke-width:0.2755;stroke-miterlimit:10;}
	.st43{fill:#A08A7A;stroke:#3C3C3B;stroke-width:2;stroke-linecap:round;stroke-linejoin:round;stroke-miterlimit:10;}
	.st44{fill:#5A9152;stroke:#3C3C3B;stroke-width:0.75;stroke-miterlimit:10;}
	.st45{fill:#CEBF9F;}
	.st46{fill:#A59983;}
	.st47{fill:none;stroke:#7E7763;stroke-width:2;stroke-linecap:round;stroke-linejoin:round;stroke-miterlimit:10;}
	.st48{fill:none;stroke:#7E7763;stroke-width:0.75;stroke-linecap:round;stroke-linejoin:round;stroke-miterlimit:10;}
	.st49{fill:none;stroke:#3C3C3B;stroke-width:4.9345;stroke-linecap:round;stroke-linejoin:round;stroke-miterlimit:10;}
	.st50{fill:#A08A7A;stroke:#3C3C3B;stroke-width:4.9345;stroke-linecap:round;stroke-linejoin:round;stroke-miterlimit:10;}
	.st51{fill:#5A9152;stroke:#3C3C3B;stroke-width:1.8504;stroke-miterlimit:10;}
	.st52{fill:none;stroke:#3C3C3B;stroke-width:4.8719;stroke-linecap:round;stroke-linejoin:round;stroke-miterlimit:10;}
	.st53{fill:none;stroke:#7E7763;stroke-width:4.8719;stroke-linecap:round;stroke-linejoin:round;stroke-miterlimit:10;}
	.st54{fill:none;stroke:#7E7763;stroke-width:1.827;stroke-linecap:round;stroke-linejoin:round;stroke-miterlimit:10;}
	.st55{fill:none;stroke:#9D9D9C;stroke-width:4;stroke-linecap:round;stroke-linejoin:round;stroke-miterlimit:10;}
	.st56{fill:#3AABE1;}
	.st57{fill:#EC7015;}
	.st58{fill:#FEFEFF;}
	.st59{fill:none;stroke:#9D9D9C;stroke-width:1.2225;stroke-linecap:round;stroke-linejoin:round;stroke-miterlimit:10;}
	.st60{fill:none;stroke:#9D9D9C;stroke-width:1.2228;stroke-linecap:round;stroke-linejoin:round;stroke-miterlimit:10;}
	.st61{fill:none;stroke:#9D9D9C;stroke-width:1.2417;stroke-linecap:round;stroke-linejoin:round;stroke-miterlimit:10;}
	.st62{fill:none;stroke:#9D9D9C;stroke-width:1.1747;stroke-linecap:round;stroke-linejoin:round;stroke-miterlimit:10;}
	.st63{fill:none;stroke:#9D9D9C;stroke-width:1.1437;stroke-linecap:round;stroke-linejoin:round;stroke-miterlimit:10;}
	.st64{fill:none;stroke:#3C3C3B;stroke-width:0.6208;stroke-linecap:round;stroke-linejoin:round;stroke-miterlimit:10;}
	.st65{fill:#009FE3;stroke:#3C3C3B;stroke-width:2;stroke-miterlimit:10;}
	.st66{fill:none;stroke:#3C3C3B;stroke-width:0.6612;stroke-linecap:round;stroke-linejoin:round;stroke-miterlimit:10;}
	.st67{fill:none;stroke:#3C3C3B;stroke-width:0.4849;stroke-linecap:round;stroke-linejoin:round;stroke-miterlimit:10;}
	.st68{fill:none;stroke:#9D9D9C;stroke-width:0.9698;stroke-linecap:round;stroke-linejoin:round;stroke-miterlimit:10;}
	.st69{fill:none;stroke:#C93226;stroke-width:0.4849;stroke-linecap:round;stroke-linejoin:round;}
	.st70{fill:none;stroke:#C93226;stroke-width:0.4849;stroke-linecap:round;stroke-linejoin:round;stroke-dasharray:1.2085,1.2085;}
	.st71{fill:none;stroke:#3C3C3B;stroke-width:1.7521;stroke-miterlimit:10;}
	.st72{fill:none;stroke:#3C3C3B;stroke-width:0.5793;stroke-linecap:round;stroke-linejoin:round;stroke-miterlimit:10;}
	.st73{fill:none;stroke:#009FE3;stroke-linecap:round;stroke-miterlimit:10;}
	.st74{fill:none;stroke:#3C3C3B;stroke-width:2;stroke-miterlimit:10;}
	.st75{fill:none;stroke:#C93226;stroke-linecap:round;stroke-miterlimit:10;stroke-dasharray:3,3;}
	.st76{fill:none;stroke:#3C3C3B;stroke-width:3;stroke-linecap:round;stroke-linejoin:round;stroke-miterlimit:10;}
	.st77{fill:#FFFFFF;stroke:#3C3C3B;stroke-width:3;stroke-linecap:round;stroke-linejoin:round;stroke-miterlimit:10;}
	.st78{fill:#5A9152;stroke:#3C3C3B;stroke-width:0.9125;stroke-miterlimit:10;}
	.st79{fill:none;stroke:#000000;stroke-miterlimit:10;}
	.st80{fill:none;stroke:#000000;stroke-width:2;stroke-linecap:round;stroke-miterlimit:10;}
	.st81{fill:none;stroke:#575756;stroke-width:0.75;stroke-miterlimit:10;}
	.st82{fill:none;stroke:#238CB9;stroke-width:2;stroke-linecap:round;stroke-miterlimit:10;}
	.st83{fill:none;stroke:#FFFFFF;stroke-width:16.38;stroke-linecap:round;stroke-linejoin:round;stroke-miterlimit:10;}
	.st84{fill:none;stroke:#000000;stroke-width:0.5;stroke-linecap:round;stroke-miterlimit:10;}
	.st85{fill:#A08A7A;stroke:#3C3C3B;stroke-width:6;stroke-linecap:round;stroke-linejoin:round;stroke-miterlimit:10;}
	.st86{fill:#5A9152;stroke:#3C3C3B;stroke-width:5;stroke-miterlimit:10;}
	.st87{fill:none;stroke:#7E7763;stroke-width:3;stroke-linecap:round;stroke-linejoin:round;stroke-miterlimit:10;}
	.st88{fill:none;stroke:#575756;stroke-width:0.5;stroke-linecap:round;stroke-miterlimit:10;}
	.st89{fill:none;stroke:#238CB9;stroke-width:2;stroke-miterlimit:10;}
</style>
<g>
	<path class="st81" d="M0.5,45.74l0-40.49c0-2.63,2.13-4.76,4.76-4.76l40.49,0c2.63,0,4.76,2.13,4.76,4.76l0,40.49
		c0,2.63-2.13,4.76-4.76,4.76l-40.49,0C2.63,50.5,0.5,48.37,0.5,45.74z"/>
	<g>
		<path class="st18" d="M25.47,31.9c-0.37,0-0.75,0.03-1.11-0.01c-0.57-0.05-1.13-0.14-1.7-0.21c-0.33-0.04-0.67-0.08-1-0.14
			c-0.35-0.06-0.69-0.14-1.03-0.23c-0.55-0.15-1.1-0.3-1.63-0.49c-0.67-0.25-1.32-0.53-1.97-0.82c-0.8-0.35-1.55-0.79-2.28-1.27
			c-0.51-0.34-1-0.69-1.5-1.04c-0.31-0.22-0.57-0.91-0.44-1.23c0.17-0.44,0.46-0.85,1.07-0.9c0.43-0.03,0.75,0.15,1.06,0.39
			c0.69,0.54,1.41,1.04,2.19,1.44c0.38,0.2,0.76,0.42,1.15,0.58c0.61,0.26,1.23,0.5,1.86,0.71c0.59,0.2,1.18,0.36,1.78,0.5
			c0.31,0.08,0.64,0.09,0.96,0.14c0.24,0.04,0.48,0.1,0.72,0.12c0.26,0.03,0.52,0.03,0.77,0.04c0.55,0.02,1.11,0.07,1.66,0.05
			c0.57-0.02,1.13-0.08,1.7-0.15c0.41-0.05,0.82-0.11,1.23-0.2c0.43-0.09,0.87-0.2,1.29-0.34c0.69-0.23,1.39-0.46,2.06-0.74
			c0.86-0.35,1.68-0.78,2.45-1.3c0.51-0.35,1-0.73,1.51-1.08c0.76-0.52,1.63-0.19,1.89,0.64c0.14,0.45-0.02,0.88-0.39,1.2
			c-0.87,0.73-1.81,1.35-2.8,1.89c-0.63,0.35-1.3,0.65-1.97,0.93c-0.67,0.27-1.36,0.51-2.05,0.72c-0.48,0.15-0.97,0.27-1.47,0.36
			c-0.61,0.11-1.22,0.2-1.84,0.28c-0.73,0.08-1.46,0.14-2.18,0.21C25.47,31.94,25.47,31.92,25.47,31.9z"/>
		<path class="st18" d="M25.45,27.58c-0.57-0.04-1.15-0.05-1.72-0.11c-0.47-0.05-0.94-0.15-1.41-0.25c-0.5-0.11-1.01-0.23-1.5-0.38
			c-1.03-0.32-2.02-0.75-2.96-1.3c-0.49-0.28-0.96-0.6-1.42-0.92c-0.38-0.26-0.56-0.64-0.53-1.09c0.03-0.49,0.32-0.81,0.75-1.01
			c0.47-0.22,0.89-0.04,1.26,0.24c0.72,0.53,1.49,0.98,2.32,1.31c0.54,0.21,1.08,0.45,1.63,0.61c0.64,0.18,1.3,0.3,1.95,0.39
			c0.63,0.09,1.26,0.12,1.9,0.14c0.4,0.01,0.8-0.01,1.19-0.07c0.63-0.1,1.27-0.2,1.88-0.36c0.61-0.16,1.22-0.38,1.8-0.63
			c0.88-0.38,1.73-0.82,2.49-1.42c0.31-0.24,0.68-0.36,1.09-0.3c0.35,0.05,0.74,0.43,0.89,0.79c0.2,0.5-0.09,1.13-0.54,1.41
			c-0.67,0.42-1.34,0.87-2.03,1.25c-0.62,0.34-1.27,0.63-1.96,0.83c-0.43,0.13-0.85,0.29-1.29,0.41c-0.36,0.1-0.73,0.17-1.1,0.22
			c-0.58,0.09-1.15,0.16-1.73,0.22c-0.32,0.03-0.64,0.01-0.96,0.01C25.45,27.56,25.45,27.57,25.45,27.58z"/>
		<path class="st18" d="M19.77,21.27c0.35,0.23,0.72,0.42,1.1,0.59c0.48,0.21,0.98,0.4,1.48,0.56c0.41,0.14,0.83,0.27,1.26,0.34
			c0.61,0.1,1.23,0.13,1.85,0.18c0.64-0.06,1.27-0.08,1.88-0.19c0.57-0.1,1.13-0.27,1.68-0.45c0.79-0.26,1.52-0.64,2.22-1.09
			c0.33-0.21,0.49-0.53,0.53-0.91c0.05-0.52-0.21-0.89-0.64-1.12c-0.43-0.24-0.88-0.15-1.3,0.1c-0.35,0.2-0.69,0.43-1.06,0.57
			c-0.59,0.22-1.2,0.41-1.81,0.56c-0.41,0.1-0.85,0.12-1.28,0.12c-0.62,0-1.23-0.03-1.85-0.16c-0.92-0.18-1.76-0.52-2.56-0.98
			c-0.48-0.27-0.95-0.47-1.49-0.11C19.06,19.76,19.04,20.79,19.77,21.27z"/>
	</g>
	<g>
		<line class="st88" x1="44.49" y1="39.59" x2="40.32" y2="43.75"/>
		<line class="st88" x1="40.98" y1="39.59" x2="36.81" y2="43.75"/>
		<line class="st88" x1="37.47" y1="39.59" x2="33.31" y2="43.75"/>
		<line class="st88" x1="33.97" y1="39.59" x2="29.8" y2="43.75"/>
		<line class="st88" x1="30.46" y1="39.59" x2="26.3" y2="43.75"/>
		<line class="st88" x1="26.95" y1="39.59" x2="22.79" y2="43.75"/>
		<line class="st88" x1="23.45" y1="39.59" x2="19.28" y2="43.75"/>
		<line class="st88" x1="19.94" y1="39.59" x2="15.78" y2="43.75"/>
		<line class="st88" x1="16.43" y1="39.59" x2="12.27" y2="43.75"/>
		<line class="st88" x1="12.93" y1="39.59" x2="8.76" y2="43.75"/>
		<line class="st88" x1="46.21" y1="39.59" x2="4.79" y2="39.59"/>
		<polyline class="st88" points="3.98,39.59 3.98,43.75 46.21,43.75 46.21,39.59 		"/>
		<line class="st88" x1="9.42" y1="39.59" x2="5.26" y2="43.75"/>
	</g>
	<g>
		<line class="st88" x1="44.49" y1="39.59" x2="40.32" y2="43.75"/>
		<line class="st88" x1="40.98" y1="39.59" x2="36.81" y2="43.75"/>
		<line class="st88" x1="37.47" y1="39.59" x2="33.31" y2="43.75"/>
		<line class="st88" x1="33.97" y1="39.59" x2="29.8" y2="43.75"/>
		<line class="st88" x1="30.46" y1="39.59" x2="26.3" y2="43.75"/>
		<line class="st88" x1="26.95" y1="39.59" x2="22.79" y2="43.75"/>
		<line class="st88" x1="23.45" y1="39.59" x2="19.28" y2="43.75"/>
		<line class="st88" x1="19.94" y1="39.59" x2="15.78" y2="43.75"/>
		<line class="st88" x1="16.43" y1="39.59" x2="12.27" y2="43.75"/>
		<line class="st88" x1="12.93" y1="39.59" x2="8.76" y2="43.75"/>
		<line class="st88" x1="9.42" y1="39.59" x2="5.26" y2="43.75"/>
	</g>
	<line class="st89" x1="3.73" y1="39.59" x2="46.46" y2="39.59"/>
</g>
</svg>
