<?xml version="1.0" encoding="utf-8"?>
<!-- Generator: Adobe Illustrator 27.0.0, SVG Export Plug-In . SVG Version: 6.00 Build 0)  -->
<svg version="1.1" id="Layer_1" xmlns="http://www.w3.org/2000/svg" xmlns:xlink="http://www.w3.org/1999/xlink" x="0px" y="0px"
	 viewBox="0 0 323.8 106.42" style="enable-background:new 0 0 323.8 106.42;" xml:space="preserve">
<style type="text/css">
	.st0{fill:#EC6309;}
	.st1{fill:#00A8E3;}
	.st2{fill:#FFFFFF;}
	.st3{fill:#878787;}
</style>
<g>
	<path class="st0" d="M309.32,40.77c-1.1,1.96-3.82,3.56-6.06,3.56H72.56c-2.23,0-3.15-1.59-2.05-3.54L84.82,15.6
		c1.11-1.95,3.84-3.54,6.09-3.54h230.35c2.24,0,3.18,1.61,2.09,3.56L309.32,40.77L309.32,40.77z"/>
	<path class="st1" d="M84.39,53.21c0,17.2-14,31.18-31.17,31.18c-17.2,0-31.19-13.98-31.19-31.18c0-17.17,13.98-31.18,31.19-31.18
		c5.64,0,10.95,1.54,15.53,4.17l3.09-5.4c-5.5-3.17-11.85-4.99-18.62-4.99c-20.64,0-37.42,16.78-37.42,37.4
		c0,20.63,16.78,37.4,37.42,37.4c20.61,0,37.4-16.77,37.4-37.4l-0.02-0.12h-6.22V53.21L84.39,53.21z"/>
	<path class="st1" d="M71.53,53.37c0,10.02-8.15,18.17-18.15,18.17c-10.03,0-18.18-8.16-18.18-18.17c0-10.01,8.14-18.16,18.18-18.16
		c3.22,0,6.26,0.85,8.88,2.34l2.38-4.16c-3.33-1.89-7.18-2.96-11.26-2.96c-12.66,0-22.96,10.3-22.96,22.95
		c0,12.66,10.3,22.97,22.96,22.97c12.65,0,22.94-10.31,22.94-22.97l-0.01-0.28h-4.78V53.37L71.53,53.37z"/>
	<path class="st1" d="M98.77,53.09v0.12c0,25.12-20.44,45.55-45.55,45.55c-25.12,0-45.55-20.42-45.55-45.55
		c0-25.1,20.42-45.54,45.55-45.54c8.23,0,15.97,2.2,22.66,6.05l3.81-6.65C71.89,2.58,62.84,0,53.22,0C23.86,0,0,23.87,0,53.21
		c0,29.34,23.86,53.22,53.22,53.22c29.33,0,53.2-23.87,53.2-53.22v-0.12H98.77L98.77,53.09z"/>
	<path class="st1" d="M60.04,53.12c0,3.68-2.99,6.67-6.66,6.67c-3.68,0-6.68-2.98-6.68-6.67c0-3.67,3-6.67,6.68-6.67
		c1.18,0,2.32,0.31,3.28,0.88l1.66-2.91c-1.47-0.84-3.15-1.33-4.94-1.33c-5.54,0-10.03,4.5-10.03,10.03
		c0,5.53,4.49,10.02,10.03,10.02c5.52,0,10-4.49,10-10.02v-0.04h-3.35L60.04,53.12L60.04,53.12z"/>
	<path class="st2" d="M88.5,30.88h4.84l-0.32-3.05l-0.52-4.69h-0.11l-2.16,4.34L88.5,30.88L88.5,30.88z M93.78,34.22h-6.97
		l-2.09,4.14h-4.33l10.89-20.07h4.08l3.09,20.07h-4.2L93.78,34.22L93.78,34.22z"/>
	<path class="st2" d="M114.13,23.25c-0.52-0.53-1.15-0.91-1.89-1.15c-0.75-0.25-1.46-0.37-2.14-0.37c-1.12,0-2.05,0.3-2.78,0.92
		c-0.72,0.6-1.21,1.59-1.46,2.92l-1.05,5.63c-0.07,0.29-0.1,0.56-0.1,0.8c0,0.51,0.1,0.94,0.29,1.3c0.21,0.36,0.45,0.65,0.76,0.87
		c0.32,0.23,0.67,0.4,1.08,0.5c0.39,0.1,0.81,0.16,1.23,0.16c0.33,0,0.69-0.03,1.08-0.09c0.38-0.05,0.77-0.15,1.18-0.28
		c0.4-0.12,0.78-0.28,1.16-0.46c0.38-0.18,0.72-0.39,1.03-0.62l1.67,3.27c-0.51,0.37-1.04,0.67-1.61,0.91
		c-0.55,0.23-1.13,0.44-1.71,0.59c-0.58,0.15-1.17,0.25-1.75,0.3c-0.58,0.06-1.13,0.1-1.69,0.1c-0.79,0-1.6-0.13-2.39-0.37
		c-0.81-0.25-1.52-0.62-2.17-1.11c-0.64-0.49-1.16-1.11-1.56-1.85c-0.39-0.74-0.6-1.61-0.6-2.63l0.03-0.75l0.12-0.79l1.25-6.47
		c0.42-2.15,1.33-3.78,2.69-4.86c1.37-1.09,3.19-1.64,5.44-1.64c1.16,0,2.31,0.18,3.46,0.56c1.14,0.37,2.06,0.9,2.73,1.57
		L114.13,23.25L114.13,23.25z"/>
	<path class="st2" d="M129.49,25.66c0.06-0.29,0.08-0.56,0.08-0.81c0-0.52-0.1-0.97-0.28-1.35c-0.2-0.38-0.46-0.7-0.75-0.96
		c-0.32-0.26-0.66-0.46-1.06-0.58c-0.38-0.13-0.77-0.19-1.18-0.19c-1.03,0-1.9,0.27-2.66,0.84c-0.74,0.55-1.24,1.48-1.49,2.8
		l-1.08,5.6c-0.06,0.35-0.08,0.66-0.08,0.96c0,0.53,0.09,0.98,0.27,1.35c0.19,0.38,0.44,0.69,0.72,0.92
		c0.33,0.24,0.68,0.41,1.06,0.52c0.38,0.1,0.78,0.15,1.16,0.15c1.13,0,2.05-0.31,2.76-0.9c0.71-0.6,1.2-1.56,1.45-2.86L129.49,25.66
		L129.49,25.66z M132.25,32.13c-0.41,2.13-1.3,3.74-2.69,4.8c-1.39,1.08-3.25,1.61-5.58,1.61c-0.87,0-1.73-0.13-2.58-0.4
		c-0.83-0.26-1.59-0.66-2.24-1.18c-0.65-0.53-1.18-1.19-1.59-1.97c-0.41-0.79-0.6-1.71-0.6-2.76c0-0.52,0.06-1.07,0.17-1.66
		l1.17-6.06c0.19-1.07,0.54-2.01,1.03-2.81c0.47-0.8,1.07-1.47,1.77-2.01c0.7-0.53,1.49-0.94,2.39-1.2c0.9-0.27,1.85-0.41,2.88-0.41
		c0.91,0,1.81,0.14,2.67,0.41c0.88,0.27,1.65,0.66,2.32,1.17c0.67,0.51,1.2,1.16,1.62,1.92c0.39,0.77,0.6,1.65,0.6,2.64l-0.05,0.66
		l-0.1,0.71L132.25,32.13L132.25,32.13z"/>
	<path class="st2" d="M150,34.84c-0.5,0.81-1.11,1.5-1.84,2.04c-0.72,0.54-1.56,0.94-2.51,1.23c-0.93,0.27-1.95,0.4-3.03,0.4
		c-0.92,0-1.8-0.11-2.65-0.36c-0.84-0.25-1.59-0.61-2.24-1.09c-0.63-0.49-1.15-1.11-1.53-1.85c-0.37-0.74-0.57-1.61-0.57-2.61
		l0.03-0.78l0.12-0.81l2.52-12.7h4l-2.57,12.76c-0.06,0.35-0.09,0.66-0.09,0.93c0,0.53,0.09,0.98,0.28,1.35
		c0.18,0.38,0.41,0.69,0.72,0.94c0.31,0.25,0.65,0.42,1,0.52c0.38,0.11,0.75,0.16,1.15,0.16c0.46,0,0.93-0.06,1.39-0.2
		c0.46-0.14,0.91-0.36,1.31-0.67c0.41-0.31,0.76-0.72,1.06-1.21c0.31-0.49,0.52-1.1,0.66-1.82l2.49-12.76h4.04l-2.67,13.68
		C150.85,33.07,150.48,34.02,150,34.84L150,34.84z"/>
	<path class="st2" d="M163.27,17.98c1.22,0,2.41,0.11,3.6,0.35c1.16,0.23,2.25,0.71,3.25,1.44l-1.96,3.26
		c-0.76-0.57-1.55-0.95-2.37-1.17c-0.81-0.22-1.65-0.32-2.46-0.32c-0.4,0-0.83,0.04-1.25,0.15c-0.44,0.1-0.82,0.25-1.16,0.46
		c-0.36,0.2-0.65,0.46-0.89,0.8c-0.23,0.33-0.34,0.73-0.34,1.22c0,0.35,0.09,0.66,0.27,0.9c0.18,0.26,0.44,0.48,0.79,0.66
		c0.33,0.18,0.73,0.35,1.19,0.49c0.45,0.14,0.95,0.28,1.5,0.42c1.94,0.49,3.33,1.14,4.2,1.98c0.86,0.83,1.28,1.96,1.28,3.37
		c0,0.99-0.2,1.89-0.66,2.7c-0.44,0.8-1.06,1.5-1.83,2.06c-0.77,0.58-1.66,1.02-2.68,1.32c-1.01,0.3-2.1,0.44-3.23,0.44
		c-1.46,0-2.82-0.21-4.1-0.61c-1.29-0.43-2.42-1.15-3.41-2.18l0.44-0.49c0.27-0.27,0.53-0.59,0.81-0.92
		c0.31-0.35,0.57-0.66,0.81-0.94l0.45-0.5c0.69,0.67,1.49,1.16,2.36,1.49c0.9,0.32,1.82,0.49,2.76,0.49c0.72,0,1.33-0.09,1.83-0.25
		c0.51-0.16,0.93-0.37,1.26-0.62c0.33-0.26,0.58-0.53,0.73-0.85c0.15-0.31,0.23-0.62,0.23-0.91c0-0.34-0.09-0.64-0.29-0.88
		c-0.21-0.24-0.5-0.46-0.86-0.65c-0.36-0.19-0.79-0.37-1.27-0.53c-0.47-0.15-1-0.32-1.57-0.45c-0.68-0.2-1.33-0.43-1.95-0.68
		c-0.62-0.26-1.16-0.59-1.63-0.99c-0.47-0.4-0.83-0.88-1.12-1.44c-0.27-0.57-0.4-1.23-0.4-2.01c0-1.04,0.21-1.98,0.61-2.78
		c0.4-0.81,0.97-1.5,1.65-2.07c0.7-0.56,1.52-0.99,2.45-1.29C161.23,18.14,162.21,17.98,163.27,17.98L163.27,17.98z"/>
	<polygon class="st2" points="181.85,21.9 178.64,38.36 174.66,38.36 177.83,21.9 172.53,21.9 173.23,18.29 187.85,18.29 
		187.15,21.9 181.85,21.9 	"/>
	<polygon class="st2" points="194.57,18.29 190.68,38.36 186.68,38.36 190.59,18.29 194.57,18.29 	"/>
	<path class="st2" d="M209.63,23.25c-0.5-0.53-1.12-0.91-1.88-1.15c-0.75-0.25-1.46-0.37-2.14-0.37c-1.14,0-2.07,0.3-2.78,0.92
		c-0.73,0.6-1.23,1.59-1.47,2.92l-1.05,5.63c-0.05,0.29-0.09,0.56-0.09,0.8c0,0.51,0.09,0.94,0.3,1.3c0.19,0.36,0.44,0.65,0.75,0.87
		c0.31,0.23,0.67,0.4,1.06,0.5c0.4,0.1,0.82,0.16,1.25,0.16c0.31,0,0.68-0.03,1.06-0.09c0.4-0.05,0.79-0.15,1.17-0.28
		c0.4-0.12,0.8-0.28,1.17-0.46c0.38-0.18,0.73-0.39,1.04-0.62l1.65,3.27c-0.5,0.37-1.03,0.67-1.59,0.91
		c-0.57,0.23-1.14,0.44-1.72,0.59c-0.58,0.15-1.16,0.25-1.74,0.3c-0.59,0.06-1.16,0.1-1.69,0.1c-0.81,0-1.61-0.13-2.41-0.37
		c-0.82-0.25-1.53-0.62-2.19-1.11c-0.63-0.49-1.15-1.11-1.54-1.85c-0.4-0.74-0.6-1.61-0.6-2.63l0.04-0.75l0.1-0.79l1.26-6.47
		c0.43-2.15,1.33-3.78,2.71-4.86c1.36-1.09,3.17-1.64,5.42-1.64c1.16,0,2.32,0.18,3.47,0.56c1.14,0.37,2.06,0.9,2.73,1.57
		L209.63,23.25L209.63,23.25z"/>
	<path class="st2" d="M234.6,36.06c-0.58,0.5-1.18,0.92-1.78,1.26c-0.6,0.32-1.21,0.57-1.81,0.77c-0.62,0.17-1.22,0.3-1.8,0.37
		c-0.6,0.07-1.16,0.11-1.69,0.11c-0.89,0-1.73-0.14-2.5-0.41c-0.79-0.27-1.47-0.67-2.07-1.19c-0.58-0.53-1.05-1.16-1.39-1.91
		c-0.35-0.75-0.53-1.59-0.53-2.52l0.04-0.76l0.1-0.78l1.28-6.47c0.21-1.08,0.58-2.04,1.1-2.84c0.51-0.81,1.14-1.48,1.89-2.01
		c0.76-0.53,1.58-0.93,2.47-1.19c0.9-0.27,1.84-0.4,2.81-0.4c0.58,0,1.17,0.05,1.79,0.12c0.6,0.07,1.19,0.2,1.76,0.36
		c0.56,0.16,1.09,0.38,1.58,0.62c0.47,0.26,0.88,0.55,1.21,0.88l-2.32,3.09c-0.51-0.53-1.14-0.89-1.84-1.09
		c-0.73-0.21-1.42-0.31-2.1-0.31c-0.49,0-0.97,0.06-1.45,0.19c-0.48,0.12-0.92,0.33-1.33,0.62c-0.43,0.29-0.79,0.67-1.1,1.14
		c-0.31,0.46-0.54,1.03-0.67,1.69l-1.12,5.45c-0.08,0.37-0.12,0.73-0.12,1.1c0,1,0.3,1.76,0.9,2.23c0.58,0.48,1.32,0.72,2.19,0.72
		c0.4,0,0.83-0.05,1.32-0.15c0.48-0.12,0.98-0.35,1.48-0.72l0.68-3.29h-2.95l0.67-3.55h6.93L234.6,36.06L234.6,36.06z"/>
	<path class="st2" d="M243.98,27.21h4.06c1.02,0,1.85-0.3,2.46-0.92c0.61-0.61,0.93-1.38,0.93-2.3c0-0.62-0.19-1.13-0.59-1.53
		c-0.38-0.41-0.96-0.6-1.75-0.6h-4.05L243.98,27.21L243.98,27.21z M250.36,18.29c0.86,0,1.59,0.15,2.21,0.44
		c0.62,0.3,1.15,0.68,1.55,1.16c0.39,0.49,0.7,1.04,0.92,1.66c0.2,0.61,0.29,1.27,0.29,1.92c0,0.57-0.05,1.16-0.2,1.78
		c-0.13,0.62-0.37,1.23-0.72,1.83c-0.34,0.61-0.79,1.18-1.37,1.71c-0.57,0.53-1.31,0.98-2.17,1.35c0.08,0.35,0.21,0.91,0.4,1.66
		c0.18,0.77,0.38,1.58,0.6,2.43c0.21,0.85,0.41,1.66,0.59,2.44c0.19,0.77,0.32,1.31,0.44,1.67h-4.29l-1.63-7.54h-3.7l-1.45,7.54h-4
		l3.87-20.07H250.36L250.36,18.29z"/>
	<path class="st2" d="M269.25,25.66c0.08-0.29,0.11-0.56,0.11-0.81c0-0.52-0.11-0.97-0.31-1.35c-0.19-0.38-0.45-0.7-0.75-0.96
		c-0.31-0.26-0.65-0.46-1.04-0.58c-0.38-0.13-0.78-0.19-1.18-0.19c-1.04,0-1.92,0.27-2.66,0.84c-0.75,0.55-1.25,1.48-1.5,2.8
		l-1.08,5.6c-0.06,0.35-0.08,0.66-0.08,0.96c0,0.53,0.09,0.98,0.27,1.35c0.18,0.38,0.43,0.69,0.73,0.92
		c0.33,0.24,0.66,0.41,1.06,0.52c0.38,0.1,0.77,0.15,1.15,0.15c1.13,0,2.05-0.31,2.78-0.9c0.7-0.6,1.17-1.56,1.44-2.86L269.25,25.66
		L269.25,25.66z M272.02,32.13c-0.38,2.13-1.3,3.74-2.69,4.8c-1.39,1.08-3.25,1.61-5.58,1.61c-0.87,0-1.73-0.13-2.58-0.4
		c-0.84-0.26-1.59-0.66-2.23-1.18c-0.66-0.53-1.19-1.19-1.58-1.97c-0.42-0.79-0.63-1.71-0.63-2.76c0-0.52,0.07-1.07,0.19-1.66
		l1.16-6.06c0.21-1.07,0.54-2.01,1.02-2.81c0.5-0.8,1.08-1.47,1.78-2.01c0.7-0.53,1.49-0.94,2.38-1.2c0.89-0.27,1.86-0.41,2.88-0.41
		c0.91,0,1.82,0.14,2.68,0.41c0.88,0.27,1.65,0.66,2.32,1.17c0.67,0.51,1.21,1.16,1.62,1.92c0.41,0.77,0.6,1.65,0.6,2.64l-0.04,0.66
		l-0.1,0.71L272.02,32.13L272.02,32.13z"/>
	<path class="st2" d="M289.77,34.84c-0.49,0.81-1.1,1.5-1.84,2.04c-0.71,0.54-1.56,0.94-2.49,1.23c-0.96,0.27-1.97,0.4-3.06,0.4
		c-0.91,0-1.8-0.11-2.63-0.36c-0.84-0.25-1.6-0.61-2.23-1.09c-0.65-0.49-1.16-1.11-1.54-1.85c-0.38-0.74-0.58-1.61-0.58-2.61
		l0.04-0.78l0.11-0.81l2.52-12.7h4.01l-2.56,12.76c-0.07,0.35-0.08,0.66-0.08,0.93c0,0.53,0.08,0.98,0.27,1.35
		c0.17,0.38,0.42,0.69,0.73,0.94c0.29,0.25,0.63,0.42,0.99,0.52c0.38,0.11,0.76,0.16,1.14,0.16c0.46,0,0.93-0.06,1.4-0.2
		c0.46-0.14,0.9-0.36,1.3-0.67c0.42-0.31,0.77-0.72,1.07-1.21c0.28-0.49,0.51-1.1,0.65-1.82l2.48-12.76h4.07l-2.7,13.68
		C290.64,33.07,290.27,34.02,289.77,34.84L289.77,34.84z"/>
	<path class="st2" d="M299.08,27.21h3.87c0.51,0,0.96-0.08,1.36-0.25c0.42-0.16,0.77-0.4,1.06-0.68c0.28-0.3,0.53-0.64,0.68-1.02
		c0.16-0.38,0.25-0.79,0.25-1.24c0-0.63-0.21-1.15-0.61-1.55c-0.41-0.41-0.99-0.61-1.79-0.61h-3.79L299.08,27.21L299.08,27.21z
		 M305.23,18.29c0.82,0,1.52,0.15,2.15,0.46c0.62,0.31,1.15,0.73,1.56,1.24c0.41,0.52,0.73,1.11,0.92,1.76
		c0.21,0.66,0.3,1.34,0.3,2.01c0,0.78-0.13,1.58-0.42,2.41c-0.28,0.83-0.7,1.58-1.28,2.27c-0.58,0.69-1.29,1.27-2.16,1.71
		c-0.86,0.44-1.88,0.67-3.06,0.67h-4.87l-1.45,7.54h-4l3.91-20.07H305.23L305.23,18.29z"/>
	<g>
		<path class="st3" d="M121.81,62.12l1.46-7.53h-3.71l-1.47,7.53h-1.47l1.72-8.85h6.68l-1.73,8.85H121.81z"/>
		<path class="st3" d="M129.9,53.27c0.36,0,0.68,0.06,0.96,0.19c0.27,0.13,0.5,0.32,0.69,0.54c0.18,0.22,0.32,0.49,0.41,0.76
			c0.09,0.3,0.15,0.59,0.15,0.89c0,0.34-0.06,0.69-0.2,1.04c-0.14,0.36-0.31,0.68-0.58,0.99c-0.26,0.29-0.57,0.54-0.95,0.72
			c-0.37,0.19-0.8,0.28-1.29,0.28h-2.37l-0.67,3.44h-1.46l1.72-8.85H129.9z M127,57.34h1.97c0.23,0,0.46-0.04,0.66-0.12
			c0.2-0.08,0.38-0.19,0.55-0.34c0.15-0.13,0.26-0.3,0.36-0.5c0.07-0.19,0.12-0.41,0.12-0.63c0-0.35-0.11-0.63-0.31-0.84
			c-0.21-0.22-0.53-0.32-0.91-0.32h-1.92L127,57.34z"/>
		<path class="st3" d="M139.03,59.34c-0.17,0.91-0.56,1.61-1.16,2.11c-0.61,0.5-1.43,0.76-2.46,0.76c-0.39,0-0.75-0.06-1.13-0.18
			c-0.36-0.11-0.68-0.3-0.97-0.52c-0.28-0.23-0.5-0.51-0.66-0.85c-0.17-0.34-0.26-0.73-0.26-1.17c0-0.23,0.03-0.48,0.09-0.74
			l0.52-2.72c0.18-0.92,0.57-1.63,1.17-2.12c0.6-0.49,1.39-0.74,2.38-0.74c0.42,0,0.82,0.07,1.2,0.19c0.38,0.12,0.7,0.31,0.97,0.53
			c0.28,0.23,0.49,0.52,0.65,0.84c0.17,0.33,0.25,0.71,0.25,1.11c0,0.09,0,0.18-0.01,0.28c-0.01,0.09-0.03,0.19-0.04,0.3
			L139.03,59.34z M138.1,56.48c0.02-0.07,0.03-0.15,0.04-0.22c0.01-0.07,0.02-0.14,0.02-0.21c0-0.26-0.06-0.48-0.15-0.67
			c-0.1-0.2-0.22-0.35-0.38-0.48c-0.14-0.14-0.32-0.22-0.51-0.28c-0.2-0.07-0.41-0.11-0.62-0.11c-0.53,0-0.99,0.15-1.34,0.43
			c-0.38,0.29-0.62,0.76-0.74,1.39l-0.5,2.56c-0.03,0.17-0.04,0.32-0.04,0.48c0,0.26,0.04,0.48,0.12,0.66
			c0.09,0.19,0.2,0.34,0.36,0.45c0.13,0.13,0.3,0.21,0.5,0.27c0.18,0.06,0.38,0.09,0.59,0.09c0.61,0,1.1-0.17,1.46-0.49
			c0.35-0.32,0.59-0.81,0.73-1.46L138.1,56.48z"/>
		<path class="st3" d="M145.23,53.27c0.39,0,0.73,0.05,1.03,0.16c0.29,0.11,0.51,0.27,0.71,0.46c0.19,0.2,0.32,0.41,0.43,0.67
			c0.08,0.25,0.13,0.52,0.13,0.81c0,0.46-0.12,0.87-0.37,1.24c-0.23,0.38-0.61,0.68-1.12,0.93c0.34,0.19,0.57,0.45,0.68,0.76
			c0.13,0.31,0.17,0.64,0.17,0.99c0,0.37-0.06,0.72-0.19,1.06c-0.14,0.34-0.33,0.64-0.58,0.92c-0.25,0.26-0.55,0.47-0.92,0.63
			c-0.37,0.15-0.78,0.23-1.23,0.23h-4.12l1.72-8.85H145.23z M141.56,60.79h2.09c0.23,0,0.46-0.04,0.67-0.1
			c0.22-0.06,0.4-0.17,0.55-0.29c0.15-0.13,0.28-0.28,0.36-0.48c0.08-0.19,0.13-0.4,0.13-0.62c0-0.35-0.11-0.62-0.32-0.8
			c-0.2-0.19-0.48-0.28-0.84-0.28h-2.11L141.56,60.79z M142.32,56.92h2.09c0.23,0,0.44-0.04,0.62-0.11c0.2-0.08,0.36-0.18,0.49-0.31
			c0.14-0.12,0.24-0.26,0.31-0.42c0.09-0.15,0.12-0.31,0.12-0.49c0-0.34-0.1-0.59-0.31-0.76c-0.21-0.17-0.49-0.26-0.85-0.26h-2.02
			L142.32,56.92z"/>
		<path class="st3" d="M149.45,53.27h5.88l-0.26,1.31h-4.42l-0.45,2.43h3.87l-0.26,1.32h-3.88l-0.47,2.46h4.76l-0.26,1.33h-6.22
			L149.45,53.27z"/>
		<path class="st3" d="M160.24,53.27c0.37,0,0.69,0.06,0.97,0.19c0.27,0.13,0.5,0.32,0.68,0.54c0.18,0.22,0.32,0.49,0.41,0.76
			c0.08,0.3,0.13,0.59,0.13,0.89c0,0.34-0.06,0.69-0.19,1.04c-0.12,0.36-0.32,0.68-0.58,0.99c-0.26,0.29-0.58,0.54-0.96,0.72
			c-0.37,0.19-0.79,0.28-1.29,0.28h-2.37l-0.66,3.44h-1.47l1.72-8.85H160.24z M157.35,57.34h1.96c0.25,0,0.47-0.04,0.67-0.12
			c0.2-0.08,0.39-0.19,0.54-0.34c0.16-0.13,0.27-0.3,0.36-0.5c0.09-0.19,0.13-0.41,0.13-0.63c0-0.35-0.12-0.63-0.32-0.84
			c-0.22-0.22-0.52-0.32-0.9-0.32h-1.93L157.35,57.34z"/>
		<path class="st3" d="M163.98,53.27h5.88l-0.26,1.31h-4.4l-0.47,2.43h3.87l-0.27,1.32h-3.87l-0.48,2.46h4.75l-0.25,1.33h-6.21
			L163.98,53.27z"/>
		<path class="st3" d="M174.65,62.12l0.74-3.83h-3.72l-0.74,3.83h-1.47l1.73-8.85h1.46l-0.72,3.69h3.71l0.72-3.69h1.5l-1.72,8.85
			H174.65z"/>
		<path class="st3" d="M184.64,59.34c-0.17,0.91-0.56,1.61-1.17,2.11c-0.59,0.5-1.42,0.76-2.46,0.76c-0.38,0-0.76-0.06-1.12-0.18
			c-0.37-0.11-0.69-0.3-0.97-0.52c-0.28-0.23-0.5-0.51-0.67-0.85c-0.17-0.34-0.26-0.73-0.26-1.17c0-0.23,0.03-0.48,0.08-0.74
			l0.53-2.72c0.19-0.92,0.57-1.63,1.17-2.12c0.6-0.49,1.39-0.74,2.38-0.74c0.42,0,0.82,0.07,1.2,0.19c0.38,0.12,0.71,0.31,0.98,0.53
			c0.27,0.23,0.49,0.52,0.66,0.84c0.16,0.33,0.25,0.71,0.25,1.11c0,0.09,0,0.18-0.02,0.28c0,0.09-0.02,0.19-0.03,0.3L184.64,59.34z
			 M183.71,56.48c0.02-0.07,0.03-0.15,0.04-0.22c0.01-0.07,0.02-0.14,0.02-0.21c0-0.26-0.04-0.48-0.14-0.67
			c-0.1-0.2-0.22-0.35-0.38-0.48c-0.15-0.14-0.32-0.22-0.52-0.28c-0.2-0.07-0.41-0.11-0.62-0.11c-0.53,0-0.98,0.15-1.35,0.43
			c-0.37,0.29-0.61,0.76-0.73,1.39l-0.49,2.56c-0.04,0.17-0.06,0.32-0.06,0.48c0,0.26,0.05,0.48,0.14,0.66
			c0.08,0.19,0.19,0.34,0.34,0.45c0.15,0.13,0.32,0.21,0.51,0.27c0.2,0.06,0.38,0.09,0.59,0.09c0.62,0,1.1-0.17,1.46-0.49
			c0.36-0.32,0.59-0.81,0.73-1.46L183.71,56.48z"/>
		<path class="st3" d="M195.32,55.85l-5.22,6.27h-1.34l1.7-8.85h1.46l-1.18,6.19h0.05l5.21-6.19h1.38l-1.7,8.85h-1.47l1.2-6.27
			H195.32z"/>
		<path class="st3" d="M202.23,62.12l0.75-3.83h-3.72l-0.75,3.83h-1.46l1.73-8.85h1.47l-0.73,3.69h3.71l0.72-3.69h1.5l-1.73,8.85
			H202.23z"/>
		<path class="st3" d="M209.29,62.12l0.72-3.88h-0.82c-0.17,0-0.33,0.01-0.49,0.04c-0.17,0.03-0.32,0.1-0.49,0.18
			c-0.14,0.09-0.28,0.23-0.42,0.39c-0.13,0.17-0.26,0.39-0.38,0.66l-1.1,2.61h-1.57l1.22-2.85c0.21-0.44,0.44-0.8,0.71-1.11
			c0.27-0.31,0.6-0.53,0.98-0.64c-0.24-0.09-0.46-0.28-0.61-0.57c-0.17-0.28-0.27-0.64-0.3-1.08l-0.37-2.6h1.43l0.36,2.47
			c0.04,0.27,0.1,0.48,0.19,0.64c0.08,0.16,0.19,0.28,0.31,0.37c0.13,0.09,0.26,0.13,0.41,0.16c0.14,0.02,0.3,0.04,0.47,0.04h0.71
			l0.68-3.68h1.45l-0.7,3.68h0.77c0.15,0,0.3-0.02,0.46-0.04c0.15-0.03,0.3-0.08,0.45-0.16c0.14-0.09,0.29-0.21,0.42-0.37
			c0.15-0.16,0.28-0.37,0.41-0.64l1.11-2.47h1.47l-1.14,2.67c-0.21,0.49-0.45,0.85-0.71,1.11c-0.25,0.25-0.53,0.41-0.84,0.51
			c0.35,0.12,0.58,0.33,0.73,0.64c0.15,0.31,0.25,0.69,0.28,1.12l0.32,2.8h-1.48l-0.26-2.61c-0.03-0.25-0.08-0.48-0.16-0.64
			c-0.08-0.17-0.16-0.3-0.28-0.39c-0.11-0.1-0.25-0.17-0.41-0.2c-0.15-0.03-0.32-0.04-0.49-0.04h-0.87l-0.72,3.88H209.29z"/>
		<path class="st3" d="M218.13,53.27H224l-0.26,1.31h-4.4l-0.47,2.43h3.88l-0.26,1.32h-3.88l-0.47,2.46h4.75l-0.25,1.33h-6.23
			L218.13,53.27z"/>
		<path class="st3" d="M228.8,62.12l0.75-3.83h-3.71l-0.76,3.83h-1.47l1.73-8.85h1.46l-0.71,3.69h3.72l0.72-3.69h1.49l-1.73,8.85
			H228.8z"/>
		<path class="st3" d="M233.41,53.27h5.87l-0.27,1.31h-4.4l-0.46,2.43h3.86l-0.25,1.32h-3.88l-0.48,2.46h4.75l-0.25,1.33h-6.23
			L233.41,53.27z"/>
		<path class="st3" d="M244.19,53.27c0.37,0,0.7,0.06,0.96,0.19c0.28,0.13,0.5,0.32,0.69,0.54c0.18,0.22,0.32,0.49,0.41,0.76
			c0.09,0.3,0.13,0.59,0.13,0.89c0,0.34-0.06,0.69-0.19,1.04c-0.12,0.36-0.31,0.68-0.57,0.99c-0.27,0.29-0.59,0.54-0.95,0.72
			c-0.37,0.19-0.81,0.28-1.29,0.28h-2.37l-0.67,3.44h-1.46l1.72-8.85H244.19z M241.3,57.34h1.96c0.25,0,0.47-0.04,0.68-0.12
			c0.2-0.08,0.38-0.19,0.53-0.34c0.16-0.13,0.28-0.3,0.36-0.5c0.09-0.19,0.13-0.41,0.13-0.63c0-0.35-0.1-0.63-0.31-0.84
			c-0.22-0.22-0.52-0.32-0.91-0.32h-1.91L241.3,57.34z"/>
		<path class="st3" d="M250.74,60.2h-3.29l-0.98,1.91h-1.58l4.78-8.85h1.49l1.37,8.85h-1.55L250.74,60.2z M248.13,58.92h2.44
			l-0.23-1.73l-0.23-2.06h-0.05l-1,1.99L248.13,58.92z"/>
		<path class="st3" d="M258.17,58.91c0.24-0.35,0.47-0.69,0.69-1.03c0.22-0.34,0.45-0.68,0.68-1.02c0.29-0.42,0.55-0.8,0.77-1.13
			c0.23-0.34,0.45-0.65,0.64-0.94c0.19-0.29,0.38-0.54,0.54-0.79c0.16-0.25,0.33-0.5,0.49-0.73h1.41l-1.68,8.85h-1.47l1.04-5.4
			h-0.06c-0.03,0.05-0.12,0.18-0.25,0.38c-0.14,0.21-0.31,0.44-0.51,0.73c-0.19,0.29-0.39,0.58-0.62,0.9
			c-0.22,0.32-0.42,0.63-0.63,0.92c-0.2,0.29-0.38,0.55-0.54,0.76c-0.16,0.22-0.26,0.36-0.3,0.45h-1.07l-1.3-4.13h-0.06l-1.03,5.39
			h-1.47l1.7-8.85h1.3c0.03,0.11,0.1,0.32,0.19,0.62c0.09,0.3,0.19,0.63,0.31,1.02c0.1,0.39,0.22,0.79,0.36,1.22
			c0.12,0.42,0.24,0.83,0.35,1.21c0.11,0.37,0.21,0.71,0.29,1c0.08,0.28,0.12,0.48,0.16,0.57H258.17z"/>
		<path class="st3" d="M269.93,55.85l-5.22,6.27h-1.35l1.7-8.85h1.46l-1.18,6.19h0.06l5.21-6.19h1.37l-1.69,8.85h-1.47l1.19-6.27
			H269.93z"/>
		<path class="st3" d="M116.93,76.22c0.23-0.14,0.43-0.32,0.61-0.52c0.19-0.21,0.36-0.46,0.51-0.78c0.15-0.3,0.3-0.68,0.44-1.11
			c0.13-0.42,0.28-0.95,0.42-1.53l0.85-3.59h5.79l-1.44,7.54h0.75l-0.65,3.26h-1.37l0.38-1.94h-5.79l-0.39,1.94h-1.36l0.63-3.27
			H116.93z M120.85,70.02c-0.2,0.77-0.39,1.47-0.53,2.12c-0.14,0.64-0.3,1.22-0.45,1.74c-0.16,0.51-0.32,0.97-0.51,1.37
			c-0.19,0.39-0.41,0.72-0.66,0.99h3.93l1.2-6.23H120.85z"/>
		<path class="st3" d="M132.96,74.77c-0.17,0.91-0.56,1.61-1.17,2.12c-0.6,0.49-1.43,0.75-2.46,0.75c-0.38,0-0.76-0.05-1.12-0.18
			c-0.37-0.11-0.69-0.28-0.97-0.51c-0.28-0.23-0.49-0.52-0.67-0.86c-0.17-0.34-0.25-0.73-0.25-1.17c0-0.23,0.03-0.48,0.08-0.73
			l0.53-2.72c0.18-0.92,0.57-1.64,1.17-2.12c0.6-0.5,1.39-0.74,2.38-0.74c0.42,0,0.81,0.05,1.2,0.19c0.37,0.13,0.7,0.3,0.97,0.53
			c0.27,0.24,0.49,0.52,0.65,0.85c0.16,0.32,0.26,0.69,0.26,1.1c0,0.09-0.01,0.19-0.02,0.29c-0.01,0.09-0.02,0.19-0.04,0.29
			L132.96,74.77z M132.04,71.92c0-0.08,0.02-0.15,0.03-0.22c0.01-0.08,0.01-0.14,0.01-0.22c0-0.25-0.04-0.48-0.13-0.67
			c-0.1-0.2-0.22-0.36-0.37-0.5c-0.15-0.12-0.33-0.22-0.53-0.28c-0.19-0.07-0.4-0.09-0.61-0.09c-0.53,0-0.98,0.14-1.36,0.44
			c-0.36,0.27-0.61,0.74-0.72,1.38l-0.49,2.56c-0.04,0.17-0.06,0.33-0.06,0.49c0,0.26,0.04,0.48,0.13,0.67
			c0.08,0.18,0.2,0.33,0.34,0.45c0.14,0.13,0.32,0.21,0.52,0.26c0.17,0.06,0.38,0.09,0.59,0.09c0.61,0,1.1-0.16,1.45-0.48
			c0.36-0.33,0.61-0.82,0.73-1.47L132.04,71.92z"/>
		<path class="st3" d="M133.79,77.54l1.64-8.85h1.44l-0.68,3.68h1.1c0.14,0,0.3-0.01,0.45-0.03c0.15-0.03,0.3-0.08,0.45-0.17
			c0.16-0.08,0.3-0.21,0.44-0.37c0.13-0.16,0.27-0.37,0.38-0.63l1.08-2.48h1.53l-1.15,2.64c-0.18,0.46-0.43,0.82-0.68,1.1
			c-0.26,0.29-0.55,0.46-0.84,0.56c0.34,0.13,0.58,0.34,0.72,0.64c0.15,0.3,0.25,0.67,0.3,1.11l0.3,2.8h-1.52l-0.26-2.6
			c-0.02-0.26-0.07-0.49-0.14-0.66c-0.07-0.16-0.16-0.29-0.28-0.39c-0.11-0.09-0.25-0.16-0.39-0.19c-0.16-0.02-0.32-0.05-0.49-0.05
			h-1.21l-0.73,3.88H133.79z"/>
		<path class="st3" d="M146.42,75.63h-3.29l-0.98,1.91h-1.59l4.79-8.85h1.49l1.37,8.85h-1.55L146.42,75.63z M143.82,74.36h2.43
			l-0.21-1.74l-0.26-2.05h-0.05l-0.98,1.98L143.82,74.36z"/>
		<path class="st3" d="M153.47,68.61c0.37,0,0.72,0.04,1.06,0.12c0.34,0.08,0.63,0.21,0.88,0.38c0.25,0.17,0.45,0.38,0.59,0.63
			c0.15,0.27,0.23,0.56,0.23,0.9c0,0.53-0.15,0.98-0.45,1.38c-0.3,0.4-0.72,0.69-1.25,0.88c0.36,0.17,0.64,0.41,0.81,0.73
			c0.17,0.31,0.25,0.63,0.25,0.95c0,0.52-0.1,0.97-0.3,1.35c-0.2,0.4-0.46,0.7-0.8,0.95c-0.34,0.25-0.73,0.43-1.17,0.56
			c-0.44,0.13-0.89,0.19-1.35,0.19c-0.27,0-0.56-0.02-0.83-0.07c-0.27-0.04-0.54-0.1-0.79-0.18c-0.25-0.09-0.49-0.17-0.7-0.28
			c-0.21-0.1-0.38-0.23-0.53-0.37l0.91-1.04c0.11,0.1,0.25,0.2,0.42,0.27c0.16,0.08,0.34,0.14,0.52,0.2
			c0.18,0.06,0.37,0.1,0.56,0.13c0.18,0.03,0.35,0.04,0.5,0.04c0.29,0,0.56-0.03,0.82-0.11c0.25-0.07,0.47-0.18,0.66-0.32
			c0.19-0.14,0.34-0.31,0.45-0.51c0.11-0.2,0.17-0.44,0.17-0.69c0-0.38-0.14-0.68-0.4-0.89c-0.27-0.2-0.61-0.3-1.05-0.3h-1.08
			l0.24-1.19h1.19c0.17,0,0.36-0.03,0.55-0.08c0.2-0.05,0.4-0.12,0.57-0.23c0.17-0.11,0.32-0.24,0.45-0.42
			c0.1-0.18,0.18-0.39,0.18-0.64c0-0.18-0.05-0.34-0.13-0.47c-0.09-0.14-0.21-0.25-0.34-0.33c-0.13-0.08-0.3-0.14-0.47-0.18
			c-0.17-0.04-0.34-0.06-0.52-0.06c-0.39,0-0.78,0.07-1.16,0.19c-0.39,0.13-0.73,0.29-1.02,0.5l-0.63-1.08
			c0.4-0.27,0.86-0.49,1.37-0.66C152.4,68.69,152.93,68.61,153.47,68.61z"/>
		<path class="st3" d="M161.75,75.63h-3.3l-0.99,1.91h-1.58l4.78-8.85h1.5l1.36,8.85h-1.56L161.75,75.63z M159.14,74.36h2.43
			l-0.22-1.74l-0.25-2.05h-0.03l-1.01,1.98L159.14,74.36z"/>
		<path class="st3" d="M169.59,77.54l0.74-3.82h-3.71l-0.74,3.82h-1.46l1.71-8.85h1.47l-0.72,3.7h3.72l0.71-3.7h1.5l-1.72,8.85
			H169.59z"/>
		<path class="st3" d="M179.58,74.77c-0.16,0.91-0.56,1.61-1.16,2.12c-0.61,0.49-1.43,0.75-2.47,0.75c-0.38,0-0.76-0.05-1.12-0.18
			c-0.37-0.11-0.69-0.28-0.96-0.51c-0.29-0.23-0.5-0.52-0.67-0.86c-0.16-0.34-0.25-0.73-0.25-1.17c0-0.23,0.03-0.48,0.09-0.73
			l0.52-2.72c0.18-0.92,0.57-1.64,1.17-2.12c0.6-0.5,1.39-0.74,2.38-0.74c0.42,0,0.81,0.05,1.18,0.19c0.38,0.13,0.71,0.3,0.98,0.53
			c0.28,0.24,0.48,0.52,0.66,0.85c0.16,0.32,0.24,0.69,0.24,1.1c0,0.09,0,0.19,0,0.29c-0.01,0.09-0.03,0.19-0.04,0.29L179.58,74.77z
			 M178.66,71.92c0.01-0.08,0.03-0.15,0.04-0.22c0-0.08,0.02-0.14,0.02-0.22c0-0.25-0.06-0.48-0.15-0.67
			c-0.09-0.2-0.22-0.36-0.37-0.5c-0.15-0.12-0.33-0.22-0.53-0.28c-0.19-0.07-0.4-0.09-0.61-0.09c-0.53,0-0.99,0.14-1.35,0.44
			c-0.37,0.27-0.61,0.74-0.73,1.38l-0.48,2.56c-0.04,0.17-0.06,0.33-0.06,0.49c0,0.26,0.05,0.48,0.12,0.67
			c0.1,0.18,0.21,0.33,0.35,0.45c0.14,0.13,0.31,0.21,0.5,0.26c0.19,0.06,0.39,0.09,0.6,0.09c0.61,0,1.1-0.16,1.46-0.48
			c0.36-0.33,0.6-0.82,0.72-1.47L178.66,71.92z"/>
		<path class="st3" d="M188.96,68.69c0.4,0,0.74,0.06,1.02,0.16c0.3,0.12,0.53,0.27,0.73,0.46c0.19,0.19,0.32,0.41,0.41,0.66
			c0.1,0.26,0.13,0.52,0.13,0.81c0,0.46-0.12,0.88-0.36,1.25c-0.23,0.37-0.62,0.67-1.13,0.92c0.34,0.19,0.58,0.44,0.69,0.76
			c0.12,0.31,0.17,0.64,0.17,0.98c0,0.37-0.07,0.73-0.2,1.07c-0.13,0.34-0.32,0.65-0.58,0.9c-0.26,0.27-0.57,0.5-0.93,0.64
			c-0.37,0.17-0.77,0.23-1.23,0.23h-4.11l1.73-8.85H188.96z M185.31,76.22h2.07c0.25,0,0.48-0.03,0.68-0.1
			c0.21-0.08,0.39-0.17,0.55-0.3c0.15-0.12,0.27-0.27,0.35-0.47c0.09-0.18,0.14-0.39,0.14-0.62c0-0.36-0.11-0.62-0.32-0.81
			c-0.22-0.18-0.49-0.27-0.86-0.27h-2.1L185.31,76.22z M186.07,72.35h2.09c0.23,0,0.44-0.04,0.63-0.12c0.2-0.08,0.35-0.17,0.48-0.29
			c0.13-0.12,0.25-0.27,0.32-0.44c0.08-0.16,0.11-0.31,0.11-0.48c0-0.34-0.11-0.6-0.32-0.77c-0.21-0.17-0.49-0.25-0.85-0.25h-2.01
			L186.07,72.35z"/>
		<path class="st3" d="M196.67,68.69c0.36,0,0.68,0.07,0.96,0.2c0.27,0.13,0.5,0.31,0.68,0.53c0.19,0.22,0.33,0.49,0.42,0.77
			c0.09,0.29,0.13,0.58,0.13,0.88c0,0.34-0.07,0.69-0.19,1.05c-0.13,0.35-0.33,0.67-0.57,0.98c-0.26,0.29-0.58,0.54-0.95,0.72
			c-0.38,0.2-0.81,0.29-1.3,0.29h-2.37l-0.66,3.44h-1.46l1.72-8.85H196.67z M193.78,72.78h1.97c0.25,0,0.46-0.05,0.67-0.13
			c0.21-0.08,0.4-0.19,0.55-0.34c0.15-0.14,0.26-0.31,0.36-0.5c0.08-0.2,0.13-0.41,0.13-0.64c0-0.35-0.12-0.62-0.33-0.85
			c-0.21-0.21-0.5-0.31-0.9-0.31h-1.91L193.78,72.78z"/>
		<path class="st3" d="M200.41,68.69h5.88l-0.25,1.33h-4.41l-0.47,2.42h3.87l-0.25,1.33h-3.89l-0.48,2.45h4.75l-0.26,1.32h-6.22
			L200.41,68.69z"/>
		<path class="st3" d="M210.66,74.33c0.25-0.34,0.46-0.68,0.69-1.03c0.22-0.34,0.44-0.68,0.68-1.01c0.28-0.42,0.55-0.8,0.77-1.14
			c0.22-0.34,0.43-0.65,0.63-0.94c0.19-0.28,0.38-0.55,0.54-0.8c0.17-0.24,0.33-0.49,0.5-0.73h1.41l-1.68,8.85h-1.47l1.04-5.39
			h-0.05c-0.04,0.05-0.11,0.18-0.27,0.38c-0.13,0.2-0.3,0.45-0.49,0.72c-0.2,0.29-0.4,0.58-0.62,0.9c-0.23,0.32-0.44,0.63-0.64,0.93
			c-0.2,0.28-0.38,0.55-0.54,0.76c-0.15,0.23-0.25,0.37-0.3,0.44h-1.08l-1.29-4.13h-0.07l-1.03,5.39h-1.47l1.71-8.85h1.29
			c0.04,0.11,0.09,0.33,0.19,0.62c0.08,0.3,0.19,0.64,0.3,1.01c0.12,0.39,0.24,0.8,0.36,1.24c0.12,0.42,0.25,0.83,0.36,1.21
			c0.12,0.38,0.21,0.71,0.29,1c0.07,0.28,0.14,0.48,0.17,0.57H210.66z"/>
		<path class="st3" d="M217.52,68.69h5.88l-0.26,1.33h-4.41l-0.46,2.42h3.88l-0.26,1.33H218l-0.48,2.45h4.76l-0.25,1.32h-6.23
			L217.52,68.69z"/>
		<path class="st3" d="M228.2,77.54l0.75-3.82h-3.71l-0.75,3.82h-1.47l1.73-8.85h1.46l-0.73,3.7h3.71l0.73-3.7h1.49l-1.73,8.85
			H228.2z"/>
		<path class="st3" d="M232.8,68.69h5.88l-0.25,1.33h-4.41l-0.46,2.42h3.86l-0.25,1.33h-3.88l-0.48,2.45h4.76l-0.25,1.32h-6.22
			L232.8,68.69z"/>
		<path class="st3" d="M243.04,74.33c0.25-0.34,0.48-0.68,0.69-1.03c0.22-0.34,0.46-0.68,0.68-1.01c0.28-0.42,0.54-0.8,0.77-1.14
			c0.23-0.34,0.43-0.65,0.63-0.94c0.18-0.28,0.37-0.55,0.53-0.8c0.16-0.24,0.34-0.49,0.5-0.73h1.41l-1.67,8.85h-1.48l1.04-5.39
			h-0.06c-0.03,0.05-0.11,0.18-0.25,0.38c-0.14,0.2-0.31,0.45-0.5,0.72c-0.19,0.29-0.4,0.58-0.62,0.9
			c-0.23,0.32-0.44,0.63-0.65,0.93c-0.19,0.28-0.37,0.55-0.53,0.76c-0.15,0.23-0.25,0.37-0.29,0.44h-1.08l-1.29-4.13h-0.06
			l-1.03,5.39h-1.47l1.7-8.85h1.29c0.04,0.11,0.11,0.33,0.19,0.62c0.09,0.3,0.19,0.64,0.31,1.01c0.1,0.39,0.24,0.8,0.36,1.24
			c0.13,0.42,0.24,0.83,0.36,1.21c0.11,0.38,0.21,0.71,0.28,1c0.09,0.28,0.13,0.48,0.17,0.57H243.04z"/>
	</g>
</g>
</svg>
